<svg xmlns="http://www.w3.org/2000/svg" width="22.648" height="33.667" viewBox="0 0 22.648 33.667">
  <path id="scroll" d="M22.324,38.017A11.157,11.157,0,0,1,11,26.693V15.674A11.157,11.157,0,0,1,22.324,4.35,11.157,11.157,0,0,1,33.648,15.674V26.693A11.157,11.157,0,0,1,22.324,38.017Zm1-22.343h8.362A9.209,9.209,0,0,0,29.314,9.4a8.824,8.824,0,0,0-5.989-3.049Zm-10.366,0h8.362V6.353A8.824,8.824,0,0,0,15.334,9.4,9.209,9.209,0,0,0,12.96,15.674Zm9.364,20.383a9.368,9.368,0,0,0,9.364-9.364V17.634H12.96v9.059a9.368,9.368,0,0,0,9.364,9.364ZM22.324,17.634ZM23.326,15.674ZM21.322,15.674ZM22.324,17.634Z" transform="translate(-11 -4.35)" fill="#fff" opacity="0.9"/>
</svg>
