<svg xmlns="http://www.w3.org/2000/svg" width="45" height="45" viewBox="0 0 45 45">
  <path id="support_ico3" d="M25.071,47.273a2,2,0,0,0,.75-.178,1.9,1.9,0,0,0,.7-.474L44.036,27.233A6.087,6.087,0,0,0,45.187,25.4a5.556,5.556,0,0,0,.4-2.075,6.021,6.021,0,0,0-.4-2.134,5.907,5.907,0,0,0-1.152-1.9l-9-9.96a5.077,5.077,0,0,0-1.661-1.245,4.443,4.443,0,0,0-3.75,0,5.077,5.077,0,0,0-1.661,1.245l-1.5,1.66L30.7,15.731a6.584,6.584,0,0,1,1.1,1.719,5.266,5.266,0,0,1,.455,2.194,4.972,4.972,0,0,1-1.339,3.439A4.078,4.078,0,0,1,27.8,24.565a4.565,4.565,0,0,1-1.982-.385,5.325,5.325,0,0,1-1.5-1.1l-3.964-4.447L10.768,29.249a2.212,2.212,0,0,0-.429.741,2.524,2.524,0,0,0-.161.86,1.976,1.976,0,0,0,.509,1.423,1.67,1.67,0,0,0,1.259.534,1.788,1.788,0,0,0,.83-.208,2.158,2.158,0,0,0,.616-.445l7.125-7.885,1.714,1.9-7.071,7.826a2.114,2.114,0,0,0-.455.771,2.879,2.879,0,0,0-.134.889,1.974,1.974,0,0,0,.536,1.364,1.621,1.621,0,0,0,1.232.593,1.851,1.851,0,0,0,.8-.178,2.026,2.026,0,0,0,.643-.474l7.339-8.182,1.714,1.9L19.5,38.794a3.553,3.553,0,0,0-.4.771,2.427,2.427,0,0,0-.187.889,2.049,2.049,0,0,0,.536,1.423,1.674,1.674,0,0,0,1.286.593,1.737,1.737,0,0,0,.75-.178,2.026,2.026,0,0,0,.643-.474l7.393-8.182,1.714,1.9-7.393,8.182a2.175,2.175,0,0,0-.429.771,2.64,2.64,0,0,0-.161.83,1.955,1.955,0,0,0,.509,1.453,1.786,1.786,0,0,0,1.313.5Zm0,2.727a3.805,3.805,0,0,1-2.946-1.393,5.261,5.261,0,0,1-1.286-3.468,4.507,4.507,0,0,1-3.054-1.393,5.084,5.084,0,0,1-1.339-3.409,4.535,4.535,0,0,1-3.054-1.482,5.274,5.274,0,0,1-1.286-3.379,4.607,4.607,0,0,1-3.08-1.393,4.483,4.483,0,0,1-1.259-3.291,5.714,5.714,0,0,1,.321-1.838,4.69,4.69,0,0,1,.964-1.66l11.3-12.51,5.464,6.047a2.66,2.66,0,0,0,.911.741,2.385,2.385,0,0,0,1.071.267,1.9,1.9,0,0,0,1.393-.682,2.223,2.223,0,0,0,.643-1.571,2.287,2.287,0,0,0-.214-.949,3.713,3.713,0,0,0-.643-.949l-7.5-8.36a5.077,5.077,0,0,0-1.661-1.245,4.6,4.6,0,0,0-1.929-.415,4.3,4.3,0,0,0-1.848.415,5.175,5.175,0,0,0-1.634,1.245l-7.446,8.3A4.909,4.909,0,0,0,5.813,19.5a8.267,8.267,0,0,0-.4,2.283,5.9,5.9,0,0,0,.375,2.075,7.94,7.94,0,0,0,.964,1.838L4.929,27.648a11.018,11.018,0,0,1-1.366-2.7A9.517,9.517,0,0,1,3,21.719a9.688,9.688,0,0,1,.563-3.291A7.757,7.757,0,0,1,5.25,15.672l7.393-8.241a7.332,7.332,0,0,1,2.464-1.838,7.1,7.1,0,0,1,5.679,0A7.332,7.332,0,0,1,23.25,7.431l1.5,1.66,1.5-1.66a6.758,6.758,0,0,1,2.438-1.838,7.031,7.031,0,0,1,5.652,0A7.332,7.332,0,0,1,36.8,7.431l8.946,9.9a8.472,8.472,0,0,1,1.661,2.787A9.213,9.213,0,0,1,48,23.32a8.427,8.427,0,0,1-.589,3.142A9.593,9.593,0,0,1,45.75,29.19L28.232,48.518a3.929,3.929,0,0,1-1.473,1.126A4.249,4.249,0,0,1,25.071,50ZM19.018,19.051Z" transform="translate(-3 -5)" fill="#3d3d3d"/>
</svg>
