<svg xmlns="http://www.w3.org/2000/svg" width="45" height="45" viewBox="0 0 45 45">
  <path id="support_ico2_w" d="M36.382,38.454l2.013-2.013L28.98,26.967v-11.9H26.316V28.033ZM27.5,50a21.8,21.8,0,0,1-8.734-1.776,22.559,22.559,0,0,1-11.99-11.99,22.358,22.358,0,0,1,0-17.467,22.559,22.559,0,0,1,11.99-11.99,22.358,22.358,0,0,1,17.467,0,22.559,22.559,0,0,1,11.99,11.99,22.358,22.358,0,0,1,0,17.467,22.559,22.559,0,0,1-11.99,11.99A21.8,21.8,0,0,1,27.5,50ZM27.5,27.5Zm0,19.836a19.1,19.1,0,0,0,14-5.832,19.1,19.1,0,0,0,5.832-14,19.1,19.1,0,0,0-5.832-14,19.1,19.1,0,0,0-14-5.832,19.1,19.1,0,0,0-14,5.832,19.1,19.1,0,0,0-5.832,14,19.1,19.1,0,0,0,5.832,14A19.1,19.1,0,0,0,27.5,47.336Z" transform="translate(-5 -5)" fill="#fff"/>
</svg>
