<svg xmlns="http://www.w3.org/2000/svg" width="45" height="45" viewBox="0 0 45 45">
  <path id="support_ico1" d="M27.5,51.3l-1.895-1.837q-6.1-6.232-10.066-10.692A80.6,80.6,0,0,1,9.2,30.834a25.847,25.847,0,0,1-3.286-6.265A17.839,17.839,0,0,1,5,18.96a12.964,12.964,0,0,1,3.286-9.02A10.528,10.528,0,0,1,16.428,6.3a10.987,10.987,0,0,1,6.128,1.837A16.282,16.282,0,0,1,27.5,13.516a17.741,17.741,0,0,1,5.122-5.445A10.793,10.793,0,0,1,38.572,6.3a10.528,10.528,0,0,1,8.141,3.641A12.964,12.964,0,0,1,50,18.96a17.839,17.839,0,0,1-.918,5.609A25.847,25.847,0,0,1,45.8,30.834a80.6,80.6,0,0,1-6.336,7.937q-3.967,4.461-10.066,10.692Zm0-3.936q5.921-5.969,9.74-10.233a78.435,78.435,0,0,0,6.039-7.478,26.571,26.571,0,0,0,3.138-5.707,14.344,14.344,0,0,0,.918-4.985,9.985,9.985,0,0,0-2.487-6.953,8.027,8.027,0,0,0-6.217-2.755,8.774,8.774,0,0,0-5.6,2,16.648,16.648,0,0,0-4.411,5.937h-2.25a16.913,16.913,0,0,0-4.441-5.9,8.726,8.726,0,0,0-5.566-2.034,8.027,8.027,0,0,0-6.217,2.755,10.077,10.077,0,0,0-2.487,7.019,14.172,14.172,0,0,0,.918,4.92,27.229,27.229,0,0,0,3.138,5.74,71.447,71.447,0,0,0,6.069,7.478Q21.638,41.395,27.5,47.364ZM27.5,28.341Z" transform="translate(-5 -6.3)" fill="#3d3d3d"/>
</svg>
