<?xml version="1.0" encoding="utf-8"?>
<!-- Generator: Adobe Illustrator 26.5.0, SVG Export Plug-In . SVG Version: 6.00 Build 0)  -->
<svg version="1.1" id="Layer_1" xmlns="http://www.w3.org/2000/svg" xmlns:xlink="http://www.w3.org/1999/xlink" x="0px" y="0px"
	 viewBox="0 0 841.89 595.28" style="enable-background:new 0 0 841.89 595.28;" xml:space="preserve">
<style type="text/css">
	.st0{fill:#FFFFFF;stroke:#D1D3D4;stroke-miterlimit:10;}
	.st1{fill:#2FB44A;}
	.st2{fill:#656565;}
	.st3{fill:#FFFFFF;}
	.st4{fill:#F47628;}
</style>
<rect x="411.25" y="424.8" class="st0" width="324.85" height="94.44"/>
<g>
	<path class="st1" d="M430.66,457.23h12.42c0,0,11.27,17.44,11.61,17.91c0.34,0.47,0.38,0,0.38,0c-0.53-2.7-1.09-3.91-1.09-8.22
		v-9.69h12.37v32.31h-12.37c0,0-11.04-16.51-11.38-16.97c-0.33-0.46-0.38,0-0.38,0c0.43,2.23,0.8,2.6,0.8,6.47v10.5h-12.36V457.23z"
		/>
	<path class="st1" d="M485.84,477.84l1.68-6.55c0.36-1.33,0.62-3.23,0.62-3.23c0.04-0.29,0.44-0.29,0.52,0.01
		c0.07,0.45,0.27,1.82,0.65,3.19l1.72,6.59H485.84z M483.52,485.51h9.77l1.18,4.03h13.69l-12.7-32.31h-14.31l-12.36,32.31h13.69
		L483.52,485.51z"/>
	<path class="st1" d="M540.74,457.23l-13.78,32.31H516l-13.78-32.31h13.5l4.72,14.7c0.52,1.58,0.89,5.06,0.89,5.06
		c0.09,0.28,0.41,0.25,0.46,0c0,0,0.38-3.49,0.89-5.06l4.55-14.7H540.74z"/>
	<path class="st1" d="M543.43,457.23h23.94v8.83h-10.91v3.08h9.96v8.4h-9.96v3.17h11.28v8.83h-24.31V457.23z"/>
	<path class="st1" d="M585.66,465.95h0.99c2.23,0,4.16,0.3,4.16,2.79c0,2.4-2.13,2.7-4.25,2.7h-0.9V465.95z M573,489.43h12.65
		v-10.37c0,0,0.08-0.37,0.32,0l5.58,10.37h14.92l-7.75-10.5c-0.71-0.94-1.91-1.74-2.17-1.92c-0.27-0.19,0-0.26,0-0.26
		c4.81-1.46,6.89-3.51,6.89-8.4c0-8.13-6.8-11.22-14.82-11.22H573V489.43z"/>
</g>
<g>
	<path class="st1" d="M108.23,92.16h38.17c0,0,34.64,53.61,35.69,55.05c1.04,1.45,1.16,0,1.16,0c-1.62-8.29-3.34-12.02-3.34-25.28
		V92.16h38.02v99.32h-38.02c0,0-33.94-50.76-34.97-52.16c-1.01-1.4-1.16,0-1.16,0c1.31,6.86,2.46,7.99,2.46,19.89v32.27h-38.01
		V92.16z"/>
	<path class="st1" d="M277.86,155.51l5.18-20.15c1.11-4.08,1.9-9.94,1.9-9.94c0.14-0.9,1.37-0.9,1.59,0.03
		c0.23,1.39,0.82,5.61,1.99,9.81l5.3,20.25H277.86z M270.74,179.1h30.04l3.63,12.38h42.1l-39.05-99.32h-43.98l-38.01,99.32h42.09
		L270.74,179.1z"/>
	<path class="st1" d="M446.65,92.16l-42.37,99.32H370.6l-42.37-99.32h41.5l14.51,45.2c1.59,4.85,2.75,15.56,2.75,15.56
		c0.29,0.85,1.26,0.77,1.42,0c0,0,1.16-10.71,2.73-15.56l14-45.2H446.65z"/>
	<path class="st1" d="M454.91,92.16h73.58v27.14h-33.53v9.48h30.62v25.82h-30.62v9.74h34.68v27.14h-74.74V92.16z"/>
	<path class="st1" d="M584.73,118.96h3.04c6.85,0,12.79,0.91,12.79,8.56c0,7.37-6.55,8.29-13.06,8.29h-2.77V118.96z M545.83,191.14
		h38.89v-31.87c0,0,0.24-1.14,0.97,0l17.16,31.87h45.88l-23.81-32.28c-2.18-2.89-5.86-5.36-6.67-5.92c-0.82-0.57,0-0.81,0-0.81
		c14.79-4.5,21.19-10.79,21.19-25.82c0-25-20.91-34.49-45.57-34.49h-48.04V191.14z"/>
</g>
<path class="st2" d="M637.77,446.79v5.04c0,0,2.44,0.32,2.44,3.41h-9.92c0,0,0-7.48-7.48-7.48v5.2c0,0,2.44,0.16,2.44,4.07v11.22
	h19.84v-12.69C645.09,455.58,645.9,446.79,637.77,446.79z M640.21,463.74h-9.92v-3.58h9.92V463.74z"/>
<rect x="618.91" y="470.54" class="st2" width="32.36" height="4.88"/>
<polygon class="st2" points="625.09,479.16 645.11,479.16 645.11,491.68 630.29,491.68 630.29,495.26 645.11,495.26 645.11,499.97 
	625.09,499.97 625.09,486.96 640.21,486.96 640.21,484.04 625.09,484.04 "/>
<polygon class="st2" points="659.89,454.28 680.06,454.28 680.06,468.26 665.26,468.26 665.26,471.68 680.06,471.68 680.06,476.72 
	673.06,476.72 673.06,481.6 685.1,481.6 685.1,486.31 654.36,486.31 654.36,481.43 667.86,481.43 667.86,476.72 660.05,476.72 
	660.05,462.57 675.01,462.57 675.01,458.99 660.05,458.99 "/>
<polygon class="st2" points="694.04,456.71 694.04,461.76 709,461.76 709,475.42 715.02,475.42 715.02,456.71 "/>
<rect x="689" y="480.29" class="st2" width="31.22" height="5.21"/>
<path class="st1" d="M354.4,469.44c0,27.65-22.41,50.07-50.08,50.07H154.11c-27.65,0-50.07-22.42-50.07-50.07V319.22
	c0-27.66,22.42-50.08,50.07-50.08h150.21c27.67,0,50.08,22.42,50.08,50.08V469.44z"/>
<path class="st3" d="M302.55,288.29H155.89c-18.7,0-33.86,15.21-33.86,33.98v80.61c0,18.77,15.16,33.98,33.86,33.98h50.52
	l17.24,28.07c0,0,0.19,0.33,0.56,0.8c1.01,1.73,2.87,2.9,5.01,2.9c2.13,0,3.98-1.16,4.99-2.87c0.43-0.51,0.58-0.84,0.58-0.84
	l17.24-28.07h50.52c18.7,0,33.86-15.21,33.86-33.98v-80.61C336.41,303.5,321.25,288.29,302.55,288.29z"/>
<g>
	<g>
		<path class="st4" d="M169.64,347.35c0,0-5.85,0-11.16,5.17v-20.81h-13.13v54.68h13.26v-4.28c0,0,3.13,5.65,11.02,5.65
			c0,0,18.5-0.68,18.5-20.41C188.14,367.35,187.46,347.35,169.64,347.35z M166.75,376.21c-4.66,0-8.44-3.78-8.44-8.44
			c0-4.66,3.78-8.43,8.44-8.43c4.66,0,8.43,3.78,8.43,8.43C175.18,372.44,171.41,376.21,166.75,376.21z"/>
		<path class="st4" d="M192.35,330.48v12.65c0,0,5.99-0.27,5.99,10.88v32.37h12.65v-35.36
			C210.99,351.03,211.53,330.48,192.35,330.48z"/>
		<path class="st4" d="M241.93,347.52c0,0-21.69,0-21.69,20.25c0,0-0.7,19.98,21.69,19.98c0,0,22.19-0.03,22.19-19.98
			C264.11,367.78,264.83,347.52,241.93,347.52z M241.93,376.21c-4.66,0-8.44-3.78-8.44-8.44c0-4.66,3.78-8.43,8.44-8.43
			c4.66,0,8.43,3.78,8.43,8.43C250.36,372.44,246.59,376.21,241.93,376.21z"/>
		<path class="st4" d="M300.33,348.85v3.67c0,0-3.77-5-11.01-5c0,0-18.57-0.78-18.57,20.11c0,0-0.21,19.47,18.06,19.47
			c0,0,7.45,0.3,11.52-5v3.06c0,0,0.92,9.59-8.36,9.59h-3.16v11.63h5.1c0,0,19.18,0.21,19.18-20.5v-37.03H300.33z M292.48,376.21
			c-4.66,0-8.43-3.78-8.43-8.44c0-4.66,3.77-8.43,8.43-8.43c4.66,0,8.43,3.78,8.43,8.43C300.92,372.44,297.14,376.21,292.48,376.21z
			"/>
	</g>
</g>
<g>
	<path class="st1" d="M654.15,314.51c-2.69,0-4.87,2.18-4.87,4.87c0,2.69,2.18,4.88,4.87,4.88c2.69,0,4.88-2.18,4.88-4.88
		C659.03,316.69,656.84,314.51,654.15,314.51z"/>
	<path class="st1" d="M702.3,314c-2.9,0-5.25,2.35-5.25,5.25c0,2.9,2.35,5.25,5.25,5.25c2.9,0,5.25-2.35,5.25-5.25
		C707.55,316.35,705.2,314,702.3,314z"/>
	<path class="st1" d="M745.89,266.06H642.2c-10.46,0-18.94,8.48-18.94,18.94v61.54c0,10.46,8.48,18.94,18.94,18.94h36.62
		l12.46,29.35c0,0,0.86,2.54,2.93,2.54l0,0c2.08,0,2.93-2.54,2.93-2.54l12.46-29.35h36.29c10.46,0,18.94-8.48,18.94-18.94v-61.54
		C764.82,274.53,756.35,266.06,745.89,266.06z M667.73,320.45c-0.06,11.25-11.69,11.57-11.69,11.57c-4.5,0-7.04-2.98-7.04-2.98v2.03
		h-8.47v-34.93c-0.03-0.01-0.04-0.01,0-0.02v0.02c0.53,0.08,8.47-0.02,8.47-0.02v13.36c1.99-3.4,7.75-3.34,7.75-3.34
		C669.3,307.31,667.73,320.45,667.73,320.45z M682.65,307.21v23.92h-8.29v-23.68c0-3.22-4-4.12-4-4.12v-8.35
		C683.6,295.52,682.65,307.21,682.65,307.21z M702.3,332.04c-7.68,0-13.9-5.73-13.9-12.79c0-7.07,6.22-12.79,13.9-12.79
		c7.68,0,13.9,5.73,13.9,12.79C716.2,326.31,709.98,332.04,702.3,332.04z M747.72,332.04c0,0,0.12,12.15-12.23,12.15h-3.76v-7.87
		H734c0,0,5.19,0.48,5.13-7.52c0,0-1.01,3.24-8.29,3.24c0,0-10.32-0.74-10.32-10.81v-3.82c0,0,0.24-10.44,11.57-11.27
		c0,0,4.47-0.48,7.22,3.22v-2.56h8.41V332.04z"/>
	<path class="st1" d="M734.54,314.12c-2.83,0-5.13,2.3-5.13,5.13c0,2.83,2.3,5.13,5.13,5.13s5.13-2.3,5.13-5.13
		C739.67,316.41,737.37,314.12,734.54,314.12z"/>
</g>
</svg>
