<?xml version="1.0" encoding="utf-8"?>
<!-- Generator: Adobe Illustrator 24.0.1, SVG Export Plug-In . SVG Version: 6.00 Build 0)  -->
<svg version="1.1" id="Layer_1" xmlns="http://www.w3.org/2000/svg" xmlns:xlink="http://www.w3.org/1999/xlink" x="0px" y="0px"
	 viewBox="0 0 189 192" style="enable-background:new 0 0 189 192;" xml:space="preserve">
<style type="text/css">
	.st0{fill:#231F20;}
</style>
<g>
	<g>
		<path id="SVGID_1_" class="st0" d="M57.9,9.6c-9.4,0.4-15.8,1.9-21.4,4.1C30.8,16,25.9,19,21,23.9c-4.9,4.9-7.9,9.8-10.1,15.6
			c-2.2,5.6-3.6,12-4.1,21.4c-0.4,9.4-0.5,12.4-0.5,36.3c0.1,23.9,0.2,26.9,0.6,36.3c0.4,9.4,1.9,15.8,4.1,21.3
			c2.3,5.8,5.3,10.7,10.2,15.6s9.8,7.9,15.6,10.1c5.6,2.2,12,3.6,21.4,4.1c9.4,0.4,12.4,0.5,36.3,0.5c23.9-0.1,26.9-0.1,36.3-0.6
			c9.4-0.4,15.8-1.9,21.4-4.1c5.8-2.3,10.7-5.3,15.6-10.2c4.9-4.9,7.9-9.8,10.1-15.6c2.2-5.6,3.6-12,4.1-21.4
			c0.4-9.4,0.5-12.4,0.5-36.3c-0.1-23.9-0.1-26.9-0.6-36.3c-0.4-9.4-1.9-15.8-4.1-21.4c-2.3-5.8-5.3-10.7-10.2-15.6
			c-4.9-4.9-9.8-7.9-15.6-10.1c-5.6-2.2-12-3.6-21.4-4.1C121.1,9.1,118.1,9,94.2,9C70.3,9.1,67.3,9.2,57.9,9.6 M58.9,168.7
			c-8.6-0.4-13.2-1.8-16.3-3c-4.1-1.6-7-3.5-10.1-6.6c-3.1-3.1-5-6-6.6-10.1c-1.2-3.1-2.7-7.8-3.1-16.3c-0.4-9.3-0.5-12.1-0.6-35.6
			c0-23.5,0-26.3,0.4-35.6c0.4-8.6,1.8-13.2,3-16.3c1.6-4.1,3.5-7,6.6-10.1c3.1-3.1,6-5,10.1-6.6c3.1-1.2,7.8-2.6,16.3-3.1
			c9.3-0.4,12.1-0.5,35.5-0.6c23.5,0,26.3,0,35.6,0.4c8.6,0.4,13.2,1.8,16.3,3c4.1,1.6,7.1,3.5,10.1,6.6c3.1,3.1,5,6,6.6,10.1
			c1.2,3.1,2.6,7.8,3.1,16.3c0.4,9.3,0.5,12.1,0.6,35.5c0.1,23.5,0,26.3-0.4,35.6c-0.4,8.6-1.8,13.2-3,16.4c-1.6,4.1-3.5,7-6.6,10.1
			c-3.1,3.1-6,5-10.1,6.6c-3.1,1.2-7.8,2.6-16.3,3.1c-9.3,0.4-12.1,0.5-35.6,0.6C71,169.2,68.2,169.1,58.9,168.7 M130.7,50
			c0,5.8,4.8,10.5,10.6,10.5s10.6-4.8,10.5-10.6c0-5.8-4.8-10.5-10.6-10.5C135.4,39.4,130.7,44.2,130.7,50 M49.2,97.1
			c0,25,20.3,45.1,45.3,45.1c24.9-0.1,45.1-20.3,45.1-45.3c-0.1-24.9-20.3-45.2-45.3-45.1C69.3,51.9,49.1,72.2,49.2,97.1 M65,97.1
			c0-16.2,13.1-29.3,29.3-29.4c16.2,0,29.4,13.1,29.4,29.3s-13.1,29.4-29.3,29.4C78.2,126.4,65.1,113.3,65,97.1"/>
	</g>
	<g>
		<defs>
			<path id="SVGID_2_" d="M57.9,9.6c-9.4,0.4-15.8,1.9-21.4,4.1C30.8,16,25.9,19,21,23.9c-4.9,4.9-7.9,9.8-10.1,15.6
				c-2.2,5.6-3.6,12-4.1,21.4c-0.4,9.4-0.5,12.4-0.5,36.3c0.1,23.9,0.2,26.9,0.6,36.3c0.4,9.4,1.9,15.8,4.1,21.3
				c2.3,5.8,5.3,10.7,10.2,15.6s9.8,7.9,15.6,10.1c5.6,2.2,12,3.6,21.4,4.1c9.4,0.4,12.4,0.5,36.3,0.5c23.9-0.1,26.9-0.1,36.3-0.6
				c9.4-0.4,15.8-1.9,21.4-4.1c5.8-2.3,10.7-5.3,15.6-10.2c4.9-4.9,7.9-9.8,10.1-15.6c2.2-5.6,3.6-12,4.1-21.4
				c0.4-9.4,0.5-12.4,0.5-36.3c-0.1-23.9-0.1-26.9-0.6-36.3c-0.4-9.4-1.9-15.8-4.1-21.4c-2.3-5.8-5.3-10.7-10.2-15.6
				c-4.9-4.9-9.8-7.9-15.6-10.1c-5.6-2.2-12-3.6-21.4-4.1C121.1,9.1,118.1,9,94.2,9C70.3,9.1,67.3,9.2,57.9,9.6 M58.9,168.7
				c-8.6-0.4-13.2-1.8-16.3-3c-4.1-1.6-7-3.5-10.1-6.6c-3.1-3.1-5-6-6.6-10.1c-1.2-3.1-2.7-7.8-3.1-16.3c-0.4-9.3-0.5-12.1-0.6-35.6
				c0-23.5,0-26.3,0.4-35.6c0.4-8.6,1.8-13.2,3-16.3c1.6-4.1,3.5-7,6.6-10.1c3.1-3.1,6-5,10.1-6.6c3.1-1.2,7.8-2.6,16.3-3.1
				c9.3-0.4,12.1-0.5,35.5-0.6c23.5,0,26.3,0,35.6,0.4c8.6,0.4,13.2,1.8,16.3,3c4.1,1.6,7.1,3.5,10.1,6.6c3.1,3.1,5,6,6.6,10.1
				c1.2,3.1,2.6,7.8,3.1,16.3c0.4,9.3,0.5,12.1,0.6,35.5c0.1,23.5,0,26.3-0.4,35.6c-0.4,8.6-1.8,13.2-3,16.4
				c-1.6,4.1-3.5,7-6.6,10.1c-3.1,3.1-6,5-10.1,6.6c-3.1,1.2-7.8,2.6-16.3,3.1c-9.3,0.4-12.1,0.5-35.6,0.6
				C71,169.2,68.2,169.1,58.9,168.7 M130.7,50c0,5.8,4.8,10.5,10.6,10.5s10.6-4.8,10.5-10.6c0-5.8-4.8-10.5-10.6-10.5
				C135.4,39.4,130.7,44.2,130.7,50 M49.2,97.1c0,25,20.3,45.1,45.3,45.1c24.9-0.1,45.1-20.3,45.1-45.3
				c-0.1-24.9-20.3-45.2-45.3-45.1C69.3,51.9,49.1,72.2,49.2,97.1 M65,97.1c0-16.2,13.1-29.3,29.3-29.4c16.2,0,29.4,13.1,29.4,29.3
				s-13.1,29.4-29.3,29.4C78.2,126.4,65.1,113.3,65,97.1"/>
		</defs>
		<clipPath id="SVGID_3_">
			<use xlink:href="#SVGID_2_"  style="overflow:visible;"/>
		</clipPath>
	</g>
</g>
</svg>
