<?xml version="1.0" encoding="utf-8"?>
<!-- Generator: Adobe Illustrator 24.0.1, SVG Export Plug-In . SVG Version: 6.00 Build 0)  -->
<svg version="1.1" id="Layer_1" xmlns="http://www.w3.org/2000/svg" xmlns:xlink="http://www.w3.org/1999/xlink" x="0px" y="0px"
	 viewBox="0 0 500 500" style="enable-background:new 0 0 500 500;" xml:space="preserve">
<style type="text/css">
	.st0{fill:#FAE300;}
	.st1{fill:#391B1B;}
</style>
<g>
	<path class="st0" d="M459.34,499.8H39.9c-22.16,0-40.28-18.12-40.28-40.28V40.08C-0.38,17.92,17.75-0.2,39.9-0.2h419.44
		c22.16,0,40.28,18.12,40.28,40.28v419.44C499.62,481.68,481.5,499.8,459.34,499.8z"/>
	<path class="st1" d="M248.13,77.39c-106.61,0-193.03,68.32-193.03,152.6c0,54.86,36.62,102.93,91.57,129.83
		c-4.04,15.08-14.62,54.61-16.74,63.07c-2.61,10.5,3.85,10.36,8.08,7.53c3.32-2.21,52.9-35.91,74.29-50.46
		c11.61,1.72,23.58,2.63,35.83,2.63c106.61,0,193.03-68.33,193.03-152.6C441.16,145.71,354.74,77.39,248.13,77.39"/>
	<g>
		<path class="st0" d="M170.45,185.05H114c-5.31,0-9.6,4.3-9.6,9.6c0,5.3,4.3,9.6,9.6,9.6h18.35v67.62c0,2.46,1,4.88,2.76,6.63
			c1.72,1.74,4.13,2.74,6.6,2.74h2.05c2.46,0,4.86-1,6.59-2.74c1.76-1.75,2.76-4.16,2.76-6.63v-67.62h17.33
			c5.31,0,9.61-4.3,9.61-9.6C180.06,189.35,175.76,185.05,170.45,185.05z"/>
		<path class="st0" d="M306.11,263.18h-26.25v-69.06c0-5.76-4.66-10.42-10.41-10.42c-5.75,0-10.41,4.66-10.41,10.42v74.44
			c0,0.58,0.07,1.12,0.16,1.67c-0.1,0.54-0.16,1.1-0.16,1.66c0,4.82,3.89,8.72,8.71,8.72h38.36c4.83,0,8.71-3.9,8.71-8.72
			C314.82,267.09,310.93,263.18,306.11,263.18z"/>
		<path class="st0" d="M389.99,266.35l-29.25-38.42l26.43-26.44c3.58-3.57,3.58-9.38,0-12.96c-3.58-3.58-9.38-3.58-12.97,0
			l-32.72,32.72v-27.13c0-5.76-4.66-10.42-10.41-10.42c-5.75,0-10.42,4.66-10.42,10.42v76.73c0,5.76,4.66,10.42,10.42,10.42
			c5.75,0,10.41-4.65,10.41-10.42v-23.67l5.95-5.94l27.67,36.31c3.08,4.11,8.93,4.96,13.04,1.85
			C392.25,276.31,393.08,270.46,389.99,266.35z"/>
		<path class="st0" d="M251.24,268.84l-28.13-76.96c0,0-0.07-0.06-0.09-0.09c-1.8-4.69-6.99-8.1-13.18-8.1
			c-6.87,0-12.55,4.2-13.68,9.69c-0.19,0.41-0.38,0.82-0.54,1.26l-27.66,74.2c-1.71,4.87,0.85,10.19,5.7,11.9
			c4.86,1.71,10.19-0.85,11.9-5.71l4.79-13.66h38.5l4.78,13.66c1.71,4.86,7.04,7.42,11.9,5.71
			C250.38,279.04,252.94,273.71,251.24,268.84z M196.45,243.93l12.94-36.92c0.15,0,0.27,0.04,0.42,0.04l12.93,36.88H196.45z"/>
	</g>
</g>
</svg>
