<?xml version="1.0" encoding="utf-8"?>
<!-- Generator: Adobe Illustrator 24.0.1, SVG Export Plug-In . SVG Version: 6.00 Build 0)  -->
<svg version="1.1" id="Layer_1" xmlns="http://www.w3.org/2000/svg" xmlns:xlink="http://www.w3.org/1999/xlink" x="0px" y="0px"
	 viewBox="0 0 341 78" style="enable-background:new 0 0 341 78;" xml:space="preserve">
<style type="text/css">
	.st0{fill-rule:evenodd;clip-rule:evenodd;fill:#44C8F5;}
</style>
<g>
	<path class="st0" d="M53.04,61.51c0,1.59-0.57,2.94-1.71,4.08c-1.14,1.13-2.5,1.7-4.1,1.7H35.77c-4.78,0-8.86-1.69-12.26-5.07
		c-3.39-3.38-5.08-7.45-5.08-12.21V26.84c0-1.63,0.56-3,1.69-4.12c1.13-1.11,2.51-1.67,4.14-1.67c1.59,0,2.94,0.57,4.07,1.7
		c1.13,1.13,1.7,2.49,1.7,4.08v8.39h16.33c1.48,0,2.75,0.52,3.81,1.58c1.06,1.05,1.58,2.31,1.58,3.78c0,1.47-0.52,2.74-1.58,3.78
		c-1.05,1.05-2.32,1.57-3.8,1.57H30.03V50c0,1.59,0.56,2.94,1.67,4.06c1.12,1.11,2.47,1.67,4.06,1.67h11.48
		c1.59,0,2.96,0.57,4.1,1.71C52.47,58.56,53.04,59.92,53.04,61.51z"/>
	<path class="st0" d="M187.38,61.51c0,1.59-0.57,2.94-1.71,4.08c-1.14,1.13-2.5,1.7-4.1,1.7h-5.21c-4.78,0-8.86-1.69-12.25-5.07
		c-3.4-3.38-5.09-7.45-5.09-12.21V26.84c0-1.63,0.56-3,1.69-4.12c1.13-1.11,2.51-1.67,4.14-1.67c1.58,0,2.94,0.57,4.07,1.7
		c1.13,1.13,1.69,2.49,1.69,4.08v8.39h10.07c1.48,0,2.75,0.53,3.81,1.58c1.06,1.05,1.59,2.31,1.59,3.78c0,1.47-0.53,2.73-1.58,3.78
		c-1.05,1.05-2.32,1.57-3.79,1.57h-10.09V50c0,1.59,0.56,2.94,1.68,4.06c1.11,1.11,2.47,1.67,4.06,1.67h5.21
		c1.59,0,2.96,0.57,4.1,1.71C186.8,58.56,187.38,59.92,187.38,61.51z"/>
	<path class="st0" d="M157.05,61.51c0,1.59-0.57,2.94-1.71,4.08c-1.14,1.13-2.5,1.7-4.09,1.7h-5.21c-4.78,0-8.86-1.69-12.26-5.07
		c-3.39-3.38-5.08-7.45-5.08-12.21V26.84c0-1.63,0.56-3,1.69-4.12c1.13-1.11,2.51-1.67,4.14-1.67c1.58,0,2.94,0.57,4.07,1.7
		c1.13,1.13,1.7,2.49,1.7,4.08v8.39h10.07c1.48,0,2.75,0.53,3.81,1.58c1.06,1.05,1.59,2.31,1.59,3.78c0,1.47-0.53,2.73-1.58,3.78
		c-1.05,1.05-2.33,1.57-3.79,1.57H140.3V50c0,1.59,0.56,2.94,1.68,4.06c1.11,1.11,2.47,1.67,4.06,1.67h5.21
		c1.59,0,2.96,0.57,4.09,1.71C156.48,58.56,157.05,59.92,157.05,61.51z"/>
	<path class="st0" d="M108.97,51.12c0,4.45-1.58,8.26-4.75,11.43c-3.18,3.16-6.99,4.74-11.46,4.74c-4.09,0-7.68-1.37-10.79-4.14
		c-3.07,2.76-6.65,4.14-10.73,4.14c-4.47,0-8.29-1.58-11.46-4.74c-3.17-3.16-4.76-6.98-4.76-11.43V39.82c0-1.53,0.54-2.81,1.6-3.85
		c1.06-1.04,2.34-1.56,3.83-1.56c1.49,0,2.77,0.52,3.83,1.56c1.06,1.04,1.59,2.33,1.59,3.85v11.3c0,1.49,0.52,2.75,1.57,3.79
		s2.31,1.56,3.8,1.56c1.44,0,2.69-0.52,3.73-1.56c1.04-1.04,1.56-2.3,1.56-3.79V39.89c0-1.48,0.54-2.76,1.6-3.85
		c1.06-1.08,2.36-1.62,3.9-1.62c1.5,0,2.77,0.53,3.84,1.59c1.07,1.06,1.6,2.34,1.6,3.82v11.3c0,1.49,0.52,2.75,1.56,3.79
		c1.04,1.04,2.29,1.56,3.74,1.56c1.49,0,2.75-0.52,3.79-1.56c1.04-1.04,1.56-2.3,1.56-3.79v-11.3c0-1.48,0.54-2.76,1.6-3.82
		c1.06-1.06,2.34-1.59,3.82-1.59c1.49,0,2.77,0.53,3.83,1.59c1.06,1.06,1.59,2.34,1.59,3.82V51.12z"/>
	<path class="st0" d="M124.63,25.57c0,1.59-0.57,2.95-1.7,4.08c-1.14,1.13-2.5,1.7-4.09,1.7c-1.6,0-2.95-0.57-4.1-1.7
		c-1.13-1.13-1.71-2.49-1.71-4.08c0-1.59,0.57-2.95,1.71-4.08c1.14-1.13,2.5-1.7,4.1-1.7c1.59,0,2.95,0.56,4.09,1.7
		C124.06,22.63,124.63,23.99,124.63,25.57z"/>
	<path class="st0" d="M124.63,61.5c0,1.59-0.57,2.95-1.7,4.08c-1.14,1.14-2.5,1.7-4.09,1.7c-1.6,0-2.95-0.56-4.1-1.7
		c-1.13-1.13-1.71-2.49-1.71-4.08V40.2c0-1.59,0.57-2.96,1.71-4.09c1.14-1.13,2.5-1.7,4.1-1.7c1.59,0,2.95,0.57,4.09,1.7
		c1.13,1.13,1.7,2.5,1.7,4.09V61.5z"/>
	<path class="st0" d="M256.33,40.58c0,1.47-0.53,2.73-1.58,3.78c-1.06,1.05-2.33,1.58-3.8,1.58h-7.92c-1.48,0-2.73,0.51-3.77,1.55
		c-1.04,1.03-1.55,2.28-1.55,3.75v10.67c0,1.47-0.52,2.74-1.58,3.79c-1.06,1.05-2.33,1.58-3.8,1.58c-1.47,0-2.74-0.52-3.79-1.58
		c-1.05-1.05-1.58-2.31-1.58-3.78V51.26c0-4.42,1.57-8.19,4.72-11.33c3.14-3.13,6.93-4.7,11.36-4.7h7.92c1.47,0,2.74,0.53,3.8,1.58
		C255.8,37.85,256.33,39.11,256.33,40.58z"/>
	<path class="st0" d="M200.62,46.57h11.54c0-3.79-5.74-3.79-5.74-3.79S200.62,42.78,200.62,46.57L200.62,46.57z M205.53,67.28
		c-4.57,0-8.87-1.73-12.26-5.2c-3.39-3.47-4.7-7.25-4.7-12.14c0,0-0.33-15.54,17.25-15.54c13.75,0,17.94,9.66,17.94,14.43
		c0,3.79-1.74,5.14-5.68,5.14H200.5c0,0-0.63,4.02,7.38,4.02h10.03c2.56,0,4.64,2.08,4.64,4.65c0,2.57-2.07,4.64-4.64,4.64H205.53z"
		/>
	<path class="st0" d="M334.58,41.08c-3,0.51-7.34-0.02-9.63-0.98c4.78-0.4,8.01-2.57,9.26-5.52c-1.72,1.06-7.08,2.21-10.03,1.11
		c-0.15-0.7-0.31-1.36-0.47-1.95c-2.25-8.28-9.96-14.94-18.03-14.13c0.65-0.26,1.31-0.51,1.98-0.73c0.89-0.32,6.1-1.17,5.28-3.01
		c-0.7-1.62-7.07,1.22-8.27,1.6c1.58-0.6,4.21-1.62,4.48-3.44c-2.43,0.33-4.81,1.48-6.65,3.15c0.67-0.71,1.17-1.59,1.28-2.53
		c-6.47,4.14-10.26,12.48-13.32,20.58c-2.4-2.33-4.54-4.17-6.45-5.19c-5.36-2.87-11.77-5.88-21.83-9.62
		c-0.31,3.33,1.65,7.77,7.27,10.71c-1.21-0.17-3.45,0.2-5.23,0.62c0.73,3.82,3.1,6.97,9.53,8.48c-2.93,0.19-4.46,0.87-5.83,2.31
		c1.34,2.66,4.61,5.78,10.48,5.14c-6.53,2.82-2.67,8.04,2.65,7.26c-9.06,9.37-23.35,8.68-31.55,0.84
		c21.42,29.22,67.98,17.28,74.92-10.86C329.64,44.96,332.69,43.11,334.58,41.08z"/>
</g>
</svg>
