<svg width="225" height="38" viewBox="0 0 225 38" fill="none" xmlns="http://www.w3.org/2000/svg">
<path d="M23.4505 10.9108C23.5035 10.1262 23.2616 9.40959 22.9139 8.73065C22.6645 8.23276 22.3092 7.80276 21.8784 7.4482C21.576 7.19926 21.2283 7.00312 20.8731 6.82961C20.3818 6.59575 19.8603 6.52032 19.3236 6.47505C18.7492 6.42225 18.1823 6.49769 17.6456 6.67874C17.2223 6.81452 16.8217 7.01066 16.4665 7.29733C16.2624 7.46329 16.0583 7.6368 15.8694 7.81785C15.7635 7.92346 15.6577 8.03662 15.567 8.15732C15.3176 8.50433 15.0908 8.87398 14.9019 9.25871C14.6676 9.73397 14.5769 10.2394 14.4332 10.7373C14.403 10.8429 14.3577 10.941 14.3123 11.0315C14.146 11.3634 13.8361 11.2729 13.6472 11.0919C13.6018 11.0466 13.5565 10.9938 13.5187 10.9485C13.3599 10.7373 13.1483 10.7222 12.914 10.7901C12.7326 10.8429 12.5587 10.9033 12.3849 10.9712C12.0145 11.122 11.8331 11.0089 11.6442 10.7448C11.5686 10.6317 11.493 10.5185 11.4023 10.4129C11.236 10.2243 10.9714 10.1262 10.6993 10.2696C10.5406 10.3526 10.3441 10.3827 10.1627 10.4129C9.88302 10.4582 9.58824 10.4808 9.30857 10.5261C9.09693 10.5562 8.89286 10.5261 8.70389 10.428C8.36376 10.2545 8.3562 9.84713 8.6661 9.62836C9.0667 9.34924 9.50509 9.1531 9.92837 8.92679C10.4197 8.6703 10.8807 8.38363 11.2058 7.92346C11.304 7.78767 11.372 7.6368 11.4476 7.49347C11.5534 7.29733 11.6442 7.09364 11.7575 6.90505C11.9389 6.61839 12.1279 6.33927 12.3244 6.06769C12.5587 5.74331 12.846 5.45664 13.1559 5.19261C13.496 4.8984 13.8815 4.64946 14.2518 4.39297C14.7583 4.04595 15.3251 3.8121 15.8845 3.56315C16.1944 3.42736 16.5118 3.31421 16.8293 3.19351C17.1997 3.05017 17.4491 2.78614 17.6154 2.43158C17.691 2.27316 17.8043 2.12229 17.8875 1.97141C18.0387 1.69229 18.2352 1.44335 18.4241 1.1944C18.5451 1.03598 18.6887 0.900193 18.8625 0.824755C19.1346 0.711598 19.3387 0.749317 19.4067 1.05861C19.4823 1.40563 19.573 1.7451 19.6108 2.09211C19.6562 2.46176 19.8754 2.67298 20.1626 2.83895C20.2684 2.8993 20.3893 2.93702 20.5027 2.96719C20.8277 3.05772 21.1528 3.1407 21.4702 3.26894C21.901 3.44999 22.3319 3.61596 22.7476 3.84227C23.322 4.15157 23.8587 4.50612 24.3727 4.90595C24.8186 5.25296 25.2192 5.64524 25.5896 6.06769C26.0733 6.62593 26.4815 7.24452 26.7838 7.93101C27.0862 8.60995 27.2827 9.31152 27.3658 10.0433C27.4112 10.4808 27.4339 10.9183 27.4112 11.3559C27.381 11.9141 27.2827 12.4648 27.1391 13.008C27.003 13.5059 26.799 13.9736 26.5873 14.4338C26.4059 14.8185 26.1565 15.1806 25.9146 15.5351C25.6652 15.8897 25.4006 16.2292 25.121 16.5536C24.9018 16.81 24.6523 17.0364 24.4105 17.2702C24.1762 17.4965 23.9418 17.7228 23.6924 17.919C23.3523 18.1906 22.9819 18.432 22.6418 18.7035C22.4679 18.8393 22.3017 18.9902 22.158 19.1637C21.954 19.4051 21.954 19.6918 22.0825 19.9709C22.3016 20.4688 22.5738 20.9365 22.8837 21.374C23.1104 21.6909 23.375 21.9926 23.6546 22.2718C24.0099 22.6339 24.4105 22.9356 24.8489 23.1921C25.4082 23.524 26.0129 23.6975 26.6478 23.8258C27.3129 23.954 27.9479 23.8559 28.5828 23.6824C29.0892 23.5467 29.5351 23.2977 29.9357 22.9809C30.5102 22.5358 30.9788 21.9926 31.3114 21.3439C31.4852 21.0044 31.6288 20.6574 31.7347 20.2877C31.8632 19.8427 31.9085 19.39 31.9085 18.9223C31.9085 18.4697 31.8329 18.0397 31.7271 17.6021C31.5986 17.0892 31.3492 16.6365 31.0544 16.2141C30.8428 15.9123 30.5782 15.6408 30.2986 15.3918C30.0416 15.158 29.7392 14.992 29.4444 14.8109C29.263 14.6978 29.0514 14.6299 28.8473 14.562C28.6735 14.5016 28.4921 14.4488 28.3031 14.4111C28.1141 14.3734 28.0083 14.2602 27.9705 14.0867C27.9327 13.9208 28.0008 13.7925 28.1293 13.6869C28.3485 13.521 28.356 13.3022 28.2804 13.0683C28.2653 13.0306 28.2426 12.9929 28.2351 12.9476C28.2048 12.842 28.1746 12.7364 28.1595 12.6308C28.1293 12.3818 28.1595 12.1555 28.3636 11.9594C28.4694 11.8538 28.5374 11.6954 28.6054 11.552C28.6886 11.371 28.7037 11.1748 28.6432 10.9862C28.6357 10.9485 28.6206 10.9183 28.613 10.8806C28.545 10.6392 28.4543 10.4129 28.4089 10.1564C28.356 9.81695 28.2729 9.48503 28.288 9.13801C28.288 9.07766 28.2653 9.00977 28.2653 8.94942C28.2578 8.85135 28.2578 8.76082 28.356 8.70047C28.4467 8.64767 28.5525 8.65521 28.6508 8.75328C28.7868 8.88152 28.9305 9.00977 29.0363 9.16064C29.2933 9.5152 29.5276 9.88485 29.777 10.2545C29.845 10.3526 29.9282 10.4506 30.0038 10.5412C30.0264 10.5713 30.0567 10.5864 30.0794 10.6166C30.3363 11.024 30.7445 11.2427 31.1224 11.4992C31.5381 11.7859 31.9463 12.0801 32.3545 12.3743C32.8231 12.7138 33.2615 13.0985 33.6621 13.521C34.1685 14.0566 34.6069 14.6374 34.9395 15.3013C35.204 15.8294 35.4459 16.365 35.6424 16.9232C35.7029 17.1043 35.7936 17.2778 35.8692 17.4588C36.0128 17.7832 36.2622 17.9793 36.5721 18.1302C36.8518 18.2585 37.1239 18.4018 37.4035 18.5451C37.4791 18.5828 37.5472 18.6432 37.6076 18.7035C37.6303 18.7262 37.6605 18.7563 37.6681 18.7865C37.7664 19.0883 37.6303 19.3372 37.328 19.4277C37.0559 19.5032 36.7913 19.5937 36.5116 19.6465C36.2169 19.7069 36.0355 19.8955 35.9296 20.1444C35.7709 20.5291 35.65 20.929 35.5139 21.3212C35.4232 21.5777 35.3098 21.8267 35.2191 22.0832C35.068 22.5207 34.8337 22.913 34.6069 23.3128C34.3575 23.7503 34.0551 24.1577 33.7301 24.5424C33.0121 25.3873 32.1504 26.0512 31.1678 26.5566C30.9939 26.6471 30.8125 26.715 30.6311 26.7829C30.3666 26.881 30.1096 26.9866 29.8375 27.0621C29.3084 27.2054 28.7642 27.2808 28.22 27.3261C27.9781 27.3412 27.7287 27.3563 27.4868 27.3563C26.935 27.3563 26.3984 27.2884 25.8541 27.1903C25.1436 27.0696 24.4785 26.8207 23.836 26.5038C23.4732 26.3228 23.1029 26.1266 22.7627 25.9079C22.4755 25.7193 22.2185 25.4854 21.954 25.2666C21.697 25.0479 21.4324 24.8366 21.2057 24.5952C20.9109 24.2859 20.6463 23.954 20.3818 23.6221C20.2231 23.426 20.0946 23.2072 19.9358 23.0186C19.7318 22.7696 19.5126 22.5433 19.18 22.4754C18.9683 22.4377 18.7794 22.4754 18.6055 22.581C18.4922 22.6489 18.3863 22.7168 18.2805 22.7923C17.7288 23.1846 17.177 23.5768 16.6932 24.0521C16.1793 24.55 15.7409 25.1158 15.4536 25.7796C15.1664 26.4435 15.0001 27.1375 14.9926 27.8692C14.985 28.3068 15.0001 28.7292 15.1211 29.1517C15.2344 29.544 15.4158 29.9136 15.6124 30.2757C15.7787 30.585 16.013 30.8415 16.2473 31.0904C16.6706 31.5431 17.1845 31.8825 17.7665 32.0938C18.5451 32.3804 19.3614 32.4936 20.1928 32.3276C20.6615 32.2371 21.0998 32.0636 21.508 31.8071C21.9615 31.5204 22.3546 31.1734 22.7098 30.7736C22.9819 30.4643 23.2162 30.1248 23.4203 29.7703C23.6773 29.3252 23.8965 28.8499 24.025 28.3445C24.0552 28.2163 24.093 28.0956 24.1384 27.9749C24.2366 27.6957 24.5465 27.6354 24.7355 27.8617C24.864 28.0126 24.9849 28.1785 25.0983 28.3445C25.2797 28.601 25.4838 28.6613 25.771 28.5105C25.9222 28.435 26.0733 28.3596 26.2547 28.3596C26.4513 28.352 26.6024 28.4199 26.7385 28.5482C26.8594 28.6613 26.9728 28.782 27.0862 28.9027C27.1996 29.031 27.3281 29.0687 27.4943 29.0461C27.8647 29.0008 28.1897 28.8122 28.5374 28.6991C28.7717 28.6236 28.9985 28.5331 29.2555 28.5482C29.2933 28.5482 29.3311 28.5482 29.3613 28.5557C29.5654 28.601 29.6258 28.7519 29.4898 28.9027C29.3462 29.0612 29.1799 29.197 29.0136 29.3403C28.7491 29.5666 28.4769 29.7929 28.2124 30.0192C28.1368 30.0871 28.0537 30.1399 27.9856 30.2154C27.8723 30.3285 27.7589 30.4568 27.6455 30.5775C27.3961 30.8415 27.192 31.1433 27.003 31.4676C26.8292 31.7618 26.6176 32.041 26.4135 32.3201C26.2018 32.6067 25.9902 32.8859 25.771 33.1574C25.378 33.6252 24.9169 34.0325 24.4256 34.4022C24.0099 34.7115 23.5488 34.9529 23.0953 35.1867C23.0046 35.232 22.9063 35.2622 22.8156 35.2923C22.3621 35.4432 21.901 35.5865 21.4475 35.7525C21.0772 35.8883 20.7748 36.0995 20.6312 36.4918C20.4876 36.8765 20.2684 37.2235 20.0341 37.563C19.9358 37.7139 19.7771 37.8346 19.6184 37.9402C19.4445 38.0609 19.2329 37.993 19.1649 37.7893C19.1044 37.6158 19.0666 37.4272 19.0439 37.2462C19.0213 36.9897 18.9759 36.7483 18.855 36.522C18.7416 36.3032 18.5602 36.1523 18.3637 36.0165C18.084 35.8279 17.759 35.7525 17.434 35.6922C17.1241 35.6393 16.8217 35.5564 16.5269 35.4206C16.2851 35.3074 16.0281 35.2244 15.7862 35.1113C15.5292 34.983 15.2722 34.8473 15.0304 34.6964C14.4786 34.3644 13.9948 33.9495 13.5187 33.512C13.3221 33.3309 13.1559 33.1046 12.982 32.901C12.8157 32.7048 12.6494 32.5087 12.5058 32.2974C12.2564 31.9278 12.0372 31.5431 11.8331 31.1432C11.629 30.7359 11.4854 30.3134 11.3569 29.8759C11.2889 29.6269 11.1982 29.378 11.1528 29.1291C11.0999 28.8499 11.0697 28.5633 11.0546 28.2766C11.0319 27.9221 11.0092 27.5675 11.0244 27.2205C11.0546 26.6924 11.0621 26.1568 11.2436 25.6438C11.3872 25.244 11.4779 24.8291 11.6895 24.4519C11.9163 24.0295 12.1581 23.6145 12.4605 23.2298C12.9518 22.5961 13.5262 22.0454 14.1309 21.5174C14.3652 21.3137 14.6146 21.1251 14.8414 20.9214C15.1967 20.6046 15.5519 20.2877 15.8845 19.9558C16.0508 19.7898 16.1566 19.5862 16.1339 19.3372C16.1263 19.2693 16.1263 19.209 16.1339 19.1411C16.1793 18.8016 16.0205 18.5376 15.8165 18.2962C15.5746 18.002 15.31 17.7228 15.0833 17.4211C14.7205 16.9307 14.2821 16.5158 13.8286 16.1311C13.5035 15.8595 13.1483 15.6332 12.7628 15.4371C12.075 15.0901 11.3418 15.0071 10.5935 15.0523C10.0795 15.0825 9.58824 15.2032 9.11961 15.4295C8.5754 15.686 8.10677 16.0255 7.70617 16.463C7.32824 16.8779 7.03346 17.3532 6.82938 17.8888C6.69333 18.266 6.55728 18.6356 6.51948 19.0279C6.47413 19.3976 6.45146 19.7672 6.47413 20.1444C6.50437 20.5291 6.51948 20.9214 6.61019 21.2986C6.79159 22.0605 7.08637 22.7546 7.66838 23.3128C7.8649 23.5014 8.08409 23.6447 8.31085 23.7881C8.74924 24.0672 9.24811 24.1803 9.73941 24.3161C9.7772 24.3237 9.80743 24.3312 9.84523 24.3463C10.1854 24.4368 10.2685 24.6933 10.0493 24.9649C9.79988 25.2742 9.79232 25.41 9.98128 25.7645C10.1627 26.0965 10.1929 26.4284 10.004 26.7754C9.93593 26.8961 9.87546 27.0168 9.82255 27.145C9.69406 27.4468 9.75453 27.7335 9.8679 28.0201C9.92837 28.171 9.95861 28.337 9.9964 28.4954C10.0191 28.5784 10.0191 28.6689 10.0569 28.7443C10.2156 29.1064 10.2156 29.4836 10.2232 29.8683C10.2232 29.9287 10.1929 30.0343 10.1551 30.0494C10.0795 30.072 9.97372 30.072 9.91325 30.0268C9.78476 29.9287 9.65626 29.808 9.57312 29.6722C9.2859 29.212 8.96088 28.782 8.59052 28.3973C8.33353 28.1257 8.03874 27.8919 7.75152 27.658C7.4265 27.394 7.08637 27.1526 6.76136 26.8961C6.40611 26.617 6.05086 26.3303 5.71828 26.0286C5.41594 25.757 5.13628 25.4552 4.85661 25.1535C4.39554 24.6631 4.03273 24.1049 3.72284 23.5089C3.61702 23.3128 3.51876 23.1091 3.4205 22.913C3.32223 22.7168 3.24665 22.5056 3.13327 22.3095C2.97454 22.0228 2.87628 21.7135 2.76291 21.4118C2.68732 21.2081 2.59662 21.0119 2.48324 20.8233C2.43789 20.7404 2.34719 20.6725 2.25649 20.6348C1.87856 20.4462 1.47796 20.2877 1.10759 20.0916C0.744783 19.903 0.381975 19.7069 0.15522 19.3372C0.0569593 19.1713 -0.0186263 19.0053 0.0040492 18.8092C0.0116077 18.696 0.0040492 18.5753 0.0040492 18.4621C0.0116077 18.3414 0.0569591 18.2886 0.177895 18.2886C0.268597 18.2886 0.374416 18.2811 0.45756 18.3188C0.96398 18.5376 1.50063 18.53 2.02973 18.5149C2.23381 18.5074 2.4001 18.4018 2.53615 18.2585C2.71755 18.0623 2.81581 17.8285 2.8914 17.5795C2.96698 17.323 3.04257 17.0665 3.15595 16.8251C3.36759 16.3499 3.6019 15.8897 3.9118 15.4748C4.10832 15.2108 4.28972 14.9316 4.50892 14.6902C4.72812 14.4338 4.99266 14.2225 5.21942 13.9736C5.43106 13.7397 5.67293 13.5587 5.92992 13.3776C6.16423 13.2117 6.39855 13.0457 6.64042 12.8873C7.0637 12.6157 7.53232 12.4271 8.00095 12.231C8.40911 12.065 8.83995 11.982 9.27078 11.899C9.56556 11.8387 9.8679 11.7859 10.1627 11.7633C10.7447 11.7104 11.3267 11.7029 11.9087 11.801C12.4831 11.899 13.0576 11.982 13.6094 12.1857C14.2216 12.412 14.8187 12.661 15.3554 13.0231C15.7182 13.272 16.0886 13.5059 16.4287 13.7774C16.7159 14.0038 16.9729 14.2678 17.2299 14.5243C17.5851 14.8788 17.9102 15.2636 18.2049 15.6785C18.3486 15.8822 18.4997 16.0858 18.6509 16.282C18.9986 16.7422 19.6864 16.7874 20.087 16.3574C20.3667 16.0557 20.6917 15.8067 20.9865 15.5201C21.1981 15.3164 21.4022 15.1052 21.5987 14.8864C21.8255 14.645 22.0447 14.396 22.2487 14.1395C22.4301 13.9132 22.5813 13.6718 22.74 13.438C22.8232 13.3097 22.9139 13.189 22.9819 13.0532C23.2843 12.3592 23.4883 11.6576 23.4505 10.9108Z" fill="white"/>
<path d="M91.6511 11.3332C91.4394 11.2503 91.2278 11.0994 91.0086 11.0918C89.5876 11.0315 88.1666 10.9862 86.8136 11.5897C85.8688 12.0122 84.8635 12.1555 83.8431 12.1178C82.014 12.0499 80.8575 9.97536 81.7721 8.39116C82.3843 7.32749 83.314 6.76925 84.5612 6.75416C86.2694 6.73907 87.9852 6.83714 89.6783 6.64855C92.6412 6.31662 95.5966 6.60328 98.552 6.50522C99.4817 6.47504 100.411 6.30153 101.334 6.30908C102.543 6.31662 103.76 6.39206 104.969 6.5203C106.617 6.69381 108.234 7.02574 109.799 7.65187C110.797 8.05169 111.333 9.05502 110.275 10.1262C109.278 11.122 108.106 11.5445 106.738 11.3559C105.702 11.2125 104.674 10.941 103.639 10.7675C102.566 10.594 101.477 10.4657 100.396 10.3375C100.2 10.3148 99.9428 10.2997 99.8067 10.4054C99.6026 10.5562 99.391 10.7976 99.3532 11.0239C99.3305 11.1597 99.6177 11.4313 99.8143 11.4841C100.117 11.5746 100.457 11.5218 100.782 11.552C101.386 11.6124 101.999 11.6274 102.581 11.7708C103.73 12.0499 104.213 12.6534 104.327 13.8076C104.372 14.2527 104.395 14.6978 104.41 15.1429C104.47 18.2207 104.531 21.2986 104.576 24.3765C104.606 26.1568 103.934 27.7938 103.344 29.4157C102.86 30.7434 101.197 31.3092 100.117 30.502C98.6125 29.3704 96.9874 29.6194 95.3396 29.7401C94.8937 29.7703 94.4553 29.9136 94.0169 29.8985C93.1401 29.8683 92.3313 30.0645 91.5377 30.4039C91.054 30.6076 90.5475 30.7736 90.0411 30.9169C88.7788 31.279 88.1213 30.9999 87.6073 29.7929C86.9799 28.3219 86.7532 26.7527 86.791 25.161C86.8363 23.26 86.9724 21.3665 87.0026 19.4654C87.0177 18.4998 86.9194 17.5267 86.8212 16.5686C86.6549 14.8939 87.7887 13.0608 89.3986 12.5025C89.8597 12.3441 90.3283 12.231 90.7894 12.0725C91.1069 11.9594 91.4092 11.801 91.7191 11.6652C91.6813 11.552 91.6662 11.4389 91.6511 11.3332ZM95.7553 20.5744C96.5188 21.0044 97.3502 21.3439 98.0078 21.8795C99.1038 22.7772 98.7863 23.607 97.7961 24.2331C96.1408 25.2742 94.3192 25.1157 92.5052 24.6782C92.4674 24.6707 92.4296 24.648 92.3994 24.6254C91.8778 24.1879 91.2051 23.8031 91.1976 23.0487C91.19 22.2868 91.7418 21.8267 92.3994 21.5023C92.6186 21.3891 92.8226 21.2382 93.0343 21.1024C92.7395 20.9817 92.5052 21.027 92.2784 21.0421C91.9912 21.0572 91.7115 21.0346 91.4243 21.0647C90.6534 21.1326 90.2301 21.6003 90.2981 22.3472C90.3737 23.1468 90.4871 23.9465 90.6382 24.7386C90.8499 25.8777 90.9179 25.9531 92.0668 25.9154C93.4424 25.8777 94.8181 25.7419 96.1937 25.6891C96.8816 25.6664 97.5694 25.7494 98.2648 25.757C99.2398 25.7645 99.4892 25.6815 99.6706 24.7763C99.8823 23.7201 99.8823 22.6188 99.9579 21.54C100.003 20.8686 99.6102 20.5819 98.9828 20.5744C97.8793 20.5668 96.7984 20.5744 95.7553 20.5744ZM99.9881 15.9425C99.8143 15.8143 99.5346 15.4446 99.2398 15.4371C98.8165 15.422 98.5369 15.7916 98.5596 16.2669C98.5822 16.7195 98.7939 17.0514 99.2625 17.1118C99.6253 17.157 100.018 16.6214 99.9881 15.9425ZM91.5604 16.3348C91.0539 16.2518 90.5778 16.1235 90.5249 16.7799C90.5097 16.9685 90.7441 17.3381 90.9028 17.3532C91.5906 17.4513 91.6737 16.9986 91.5604 16.3348ZM95.4984 15.9425C95.4228 15.8671 95.2489 15.5351 95.0297 15.505C94.5838 15.4446 94.5158 15.8595 94.5762 16.1764C94.6291 16.4479 94.7954 16.8855 94.9693 16.9081C95.4606 16.9911 95.5135 16.5762 95.4984 15.9425ZM96.0955 11.0164C95.7024 10.7524 95.4152 10.4506 95.3094 10.5034C95.0373 10.6468 94.8408 10.9485 94.614 11.1824C94.8181 11.3257 95.0448 11.5973 95.2263 11.5746C95.4757 11.5445 95.6949 11.288 96.0955 11.0164Z" fill="white"/>
<path d="M203.645 23.2601C202.935 23.162 202.39 23.0865 201.695 22.9885C201.627 24.0069 201.544 24.9197 201.521 25.8325C201.506 26.8056 201.574 27.7788 201.566 28.7519C201.559 29.2347 201.521 29.7251 201.4 30.1928C201.166 31.0679 200.75 31.3696 199.941 31.3696C199.284 31.3696 198.588 30.8944 198.399 30.223C198.271 29.7628 198.226 29.2649 198.188 28.7821C198.09 27.5751 198.022 26.3605 197.916 25.1535C197.893 24.9348 197.765 24.7235 197.659 24.4369C196.812 24.9272 196.404 25.6741 196.003 26.3983C195.376 27.5374 194.454 28.3597 193.396 29.0612C193.229 29.1744 193.048 29.3177 192.859 29.3328C192.557 29.363 192.133 29.4082 191.96 29.2423C191.786 29.0763 191.718 28.6011 191.831 28.3672C192.247 27.4921 192.663 26.5944 193.252 25.84C194.741 23.9465 195.95 21.8871 197.107 19.7975C197.22 19.5862 197.319 19.3599 197.387 19.1261C197.424 18.9827 197.394 18.8168 197.394 18.5527C196.774 18.5527 196.185 18.5527 195.603 18.5527C195.081 18.5527 194.545 18.598 194.038 18.5226C193.381 18.4169 192.723 18.1755 192.61 17.4061C192.481 16.5385 192.564 15.6785 193.365 15.1052C194.318 14.4263 195.391 14.0943 196.555 14.0793C197.205 14.0717 197.863 14.1094 198.505 14.0717C199.39 14.0189 200.274 13.9208 201.158 13.8379C202.171 13.7398 203.176 13.6266 204.159 14.0491C205.013 14.4187 205.293 14.9619 204.839 15.7691C204.484 16.3952 203.993 16.9534 203.509 17.4966C202.814 18.2736 202.836 18.6433 203.683 19.2317C204.015 19.4655 204.31 19.7446 204.65 19.9634C205.376 20.4387 205.799 21.0874 205.807 21.9927C207.107 22.3246 208.263 21.9625 209.412 21.5702C209.866 21.4118 210.145 20.4839 209.987 19.986C209.82 19.458 209.427 19.2468 208.74 19.3222C208.377 19.3599 208.014 19.4278 207.651 19.4354C206.684 19.4504 206.207 19.0883 205.966 18.1982C205.709 17.2401 205.905 16.5234 206.699 16.1463C207.53 15.754 208.422 15.4447 209.306 15.2108C210.138 14.9921 210.334 14.894 210.372 14.034C210.402 13.3475 210.425 12.6384 210.281 11.9745C210.062 10.926 210.614 10.2847 211.287 9.67369C211.491 9.48509 211.755 9.3493 212.005 9.22106C213.169 8.61755 213.841 8.85896 214.272 10.0811C214.575 10.9561 214.771 11.8689 214.492 12.8044C214.401 13.1137 214.318 13.438 214.303 13.7549C214.25 14.6828 214.597 15.0222 215.519 14.9694C215.882 14.9468 216.245 14.8789 216.6 14.811C217.923 14.5545 219.488 16.0331 219.155 17.7455C219.019 18.4471 218.513 18.8017 217.916 18.945C217.016 19.1562 216.086 19.2392 215.164 19.3599C214.847 19.4052 214.522 19.4203 214.136 19.4504C214.023 19.805 213.872 20.1369 213.826 20.4839C213.743 21.2459 214.068 21.6004 214.854 21.6306C217.084 21.7211 219.314 21.7815 221.544 21.8871C222.957 21.9474 223.977 22.7169 224.718 23.8485C225.179 24.55 225.058 25.1234 224.469 25.7042C223.365 26.7981 222.012 26.8811 220.614 26.5341C218.596 26.0286 216.563 25.6665 214.476 25.8023C213.229 25.8853 211.997 26.2021 210.758 26.2474C209.042 26.3077 207.371 26.5869 205.731 27.0621C205.059 27.2583 204.386 27.4846 203.811 26.8434C203.146 26.0965 202.836 25.2592 203.192 24.2709C203.29 23.9918 203.426 23.7429 203.645 23.2601Z" fill="white"/>
<path d="M123.683 14.8185C123.177 14.9694 122.844 15.075 122.497 15.1655C121.491 15.4447 120.441 14.9392 120.101 14.0189C119.7 12.9099 120.131 11.8161 121.189 11.4087C122.519 10.9033 123.91 10.6166 125.339 10.6242C125.664 10.6242 125.989 10.6468 126.314 10.6015C127.659 10.428 127.705 10.3224 127.78 8.97208C127.841 7.89332 128.392 6.95789 129.073 6.16579C129.708 5.43404 130.97 5.63018 131.476 6.51281C131.832 7.1314 132.073 7.84051 132.232 8.53454C132.61 10.164 132.829 10.3752 134.537 10.2772C135.142 10.2394 135.747 10.1715 136.344 10.0961C137.372 9.96032 138.287 10.2998 139.125 10.8052C140.403 11.5747 140.358 13.0457 139.088 13.8152C138.279 14.3055 137.395 14.3357 136.495 14.2829C134.87 14.1848 134.742 14.2301 134.076 15.7011C132.973 18.1302 133.094 18.2359 134.862 19.903C137.364 22.2416 140.176 24.1577 143.245 25.6816C144.046 26.0814 144.847 26.4812 145.58 26.9867C146.797 27.824 146.608 29.3403 145.255 29.974C145.142 30.0268 145.036 30.0947 144.923 30.1173C142.988 30.4568 141.053 30.4794 139.125 30.0721C138.808 30.0042 138.445 29.7326 138.264 29.4535C136.775 27.1602 134.643 25.4175 132.996 23.2676C132.731 22.9205 132.376 22.6263 132.036 22.3472C131.174 21.6456 130.728 21.6834 130.002 22.5811C128.619 24.2935 127.062 25.8249 125.256 27.0847C123.54 28.2842 121.665 29.1291 119.511 29.1819C119.231 29.1894 118.929 29.1819 118.672 29.0914C118.022 28.8651 117.319 28.6614 117.266 27.7863C117.213 26.9037 117.297 26.0663 118.188 25.576C119.05 25.1082 119.934 24.716 120.962 24.799C121.983 24.8819 122.882 24.5576 123.683 23.9314C124.81 23.0639 125.959 22.2341 127.062 21.3439C127.569 20.9365 128.007 20.3858 127.871 19.6767C127.735 18.9751 127.206 18.598 126.503 18.4546C126.064 18.3641 125.641 18.2434 125.203 18.1378C123.835 17.8285 122.988 17.0138 123.578 15.6408C123.661 15.4597 123.638 15.241 123.683 14.8185ZM128.098 14.5847C128.536 15.5654 129.201 15.7766 129.866 15.8973C130.297 15.9803 130.728 15.5352 130.766 15.0826C130.819 14.5394 130.433 14.3282 130.017 14.3357C129.435 14.3433 128.853 14.4866 128.098 14.5847Z" fill="white"/>
<path d="M65.9748 24.12C68.2197 23.939 70.1169 23.7504 72.0141 23.6523C72.8077 23.607 73.6392 23.6372 74.4177 23.8107C75.6422 24.0898 76.1335 25.1233 75.5515 26.2398C74.6898 27.8994 73.42 29.1743 71.6513 29.891C71.5379 29.9363 71.4018 29.9212 71.3036 29.9815C69.8675 30.8943 68.3709 30.6907 66.8516 30.2305C65.4231 29.8005 63.9718 29.4233 62.5433 28.9933C61.0769 28.5482 59.6181 28.0654 58.1593 27.6128C57.4262 27.3865 56.693 27.1451 55.9447 26.9565C53.012 26.2172 51.2509 23.5618 51.8555 20.6272C52.1579 19.1713 52.6189 17.738 53.012 16.2971C53.0725 16.0632 53.148 15.8294 53.1934 15.588C53.3446 14.8562 53.0498 14.5092 52.3166 14.5545C52.0747 14.5696 51.848 14.6676 51.6061 14.7129C50.427 14.909 49.4444 14.4941 48.8699 13.5587C48.4542 12.8722 48.5676 11.6124 49.1949 10.8354C50.1246 9.68873 51.2735 8.93435 52.823 8.88909C54.6295 8.83629 56.3755 9.17576 58.0989 9.6133C59.7693 10.0433 60.2757 11.8085 59.1495 13.1438C58.1744 14.298 57.275 15.4899 56.7761 16.9308C56.4965 17.7304 56.2621 18.5451 56.0807 19.375C55.8162 20.582 57.0407 21.9172 58.1593 22.3397C59.2175 22.7395 60.3135 23.0714 61.417 23.3053C63.027 23.6674 64.6672 23.8937 65.9748 24.12Z" fill="white"/>
<path d="M178.256 27.5298C177.334 27.2431 176.397 27.0017 175.498 26.6547C174.175 26.1493 172.875 25.591 171.582 25.0177C169.73 24.203 168.09 23.1091 167.221 21.193C167.04 20.8007 166.964 20.3405 166.934 19.903C166.805 17.8435 166.813 15.769 166.548 13.7246C166.397 12.5478 166.805 11.6727 167.365 10.7901C168.211 9.45485 169.179 9.37941 170.282 10.5487C170.562 10.8429 170.789 11.1824 171 11.5294C171.333 12.065 171.786 12.2989 172.421 12.2913C173.479 12.2762 174.53 12.3215 175.588 12.329C176.888 12.3366 177.916 13.0834 178.105 14.1697C178.272 15.1052 177.939 15.769 177.009 16.0481C176.087 16.3272 175.12 16.463 174.167 16.6667C173.26 16.8553 172.308 16.9307 171.461 17.2627C170.403 17.6776 170.297 18.4395 171.106 19.2542C171.62 19.7672 172.195 20.2425 172.814 20.6121C174.167 21.4193 175.505 22.151 177.228 22.0756C178.786 22.0077 180.365 22.3623 181.937 22.5584C182.293 22.6037 182.648 22.747 182.958 22.9281C183.933 23.4712 184.061 24.4368 183.275 25.2515C181.922 26.6622 180.297 27.4619 178.256 27.5298Z" fill="white"/>
<path d="M161.643 8.98706C162.671 9.10776 163.548 9.49249 164.054 10.4279C164.561 11.3709 164.19 12.2233 163.646 13.0305C163.601 13.0984 163.548 13.1739 163.48 13.204C161.394 14.2526 161.658 16.2895 161.583 18.0698C161.462 21.0119 161.552 23.9539 161.923 26.8885C162.029 27.7107 161.855 28.5858 161.681 29.4081C161.598 29.8079 161.258 30.1927 160.948 30.4869C160.434 30.9772 159.89 30.9169 159.33 30.4416C158.786 29.989 158.589 29.393 158.552 28.7292C158.408 25.9832 158.295 23.2373 158.121 20.4989C158.038 19.2542 157.879 18.0094 157.667 16.7873C157.493 15.7765 157.41 15.7991 156.398 15.6859C155.884 15.6256 155.354 15.52 154.878 15.3163C153.926 14.9089 153.321 13.9282 153.427 13.0004C153.548 11.9442 153.903 11.0767 155.113 10.7523C156.594 10.36 158.038 9.80179 159.512 9.37179C160.207 9.16811 160.94 9.10776 161.643 8.98706Z" fill="white"/>
<path d="M200.207 8.71559C201.318 8.63261 202.263 8.92682 203.132 9.79435C203.88 10.5412 203.714 11.884 202.822 12.2461C201.068 12.9477 199.239 13.3098 197.365 12.7817C196.503 12.5403 196.095 11.801 196.155 10.8882C196.216 9.99803 196.987 9.10032 197.879 8.91173C198.309 8.8212 198.755 8.76085 199.201 8.71559C199.526 8.69296 199.851 8.71559 200.207 8.71559Z" fill="white"/>
</svg>
