<svg width="29" height="29" viewBox="0 0 29 29" fill="none" xmlns="http://www.w3.org/2000/svg">
<path d="M8.4967 0.55C6.9549 0.614583 5.90516 0.856771 4.98664 1.21198C4.05172 1.58333 3.24802 2.06771 2.44431 2.85885C1.64061 3.65 1.14855 4.44115 0.7877 5.3776C0.426854 6.28177 0.197224 7.3151 0.115214 8.83281C0.0496052 10.3505 0.0332031 10.8349 0.0332031 14.6938C0.0496052 18.5526 0.0660073 19.037 0.131616 20.5547C0.197224 22.0724 0.443256 23.1057 0.804103 23.9938C1.18135 24.9302 1.67341 25.7214 2.47712 26.5125C3.28082 27.3036 4.08453 27.788 5.03585 28.1432C5.95437 28.4984 7.0041 28.7245 8.5459 28.8052C10.0877 28.8698 10.5798 28.8859 14.4999 28.8859C18.42 28.8698 18.912 28.8698 20.4538 28.7891C21.9956 28.7245 23.0454 28.4823 23.9639 28.1271C24.9152 27.7557 25.7189 27.2714 26.5226 26.4802C27.3263 25.6891 27.8184 24.8979 28.1792 23.9615C28.5401 23.0573 28.7697 22.024 28.8517 20.5063C28.9173 18.9885 28.9337 18.5042 28.9337 14.6453C28.9173 10.7865 28.9173 10.3021 28.8353 8.78438C28.7697 7.26667 28.5237 6.23333 28.1628 5.32917C27.7856 4.39271 27.2935 3.60156 26.4898 2.81042C25.6861 2.01927 24.8824 1.5349 23.9311 1.17969C23.0126 0.824479 21.9628 0.598437 20.421 0.517708C18.8628 0.469271 18.3708 0.453125 14.4507 0.453125C10.5306 0.469271 10.0385 0.485417 8.4967 0.55ZM8.66072 26.238C7.25013 26.1734 6.49564 25.9474 5.98717 25.7536C5.31468 25.4953 4.83902 25.1885 4.33056 24.688C3.82209 24.1875 3.51045 23.7193 3.24802 23.0573C3.05119 22.5568 2.80516 21.7979 2.73955 20.4255C2.67394 18.924 2.65754 18.4719 2.64114 14.6776C2.64114 10.8833 2.64114 10.4313 2.70675 8.92969C2.77236 7.54115 3.00199 6.79844 3.19881 6.29792C3.46125 5.63594 3.77289 5.16771 4.28135 4.66719C4.78982 4.16667 5.26548 3.8599 5.93796 3.60156C6.44643 3.40781 7.21733 3.18177 8.61151 3.10104C10.1369 3.03646 10.5962 3.02031 14.4343 3.00417C18.2888 3.00417 18.748 3.00417 20.2734 3.06875C21.684 3.13333 22.4385 3.35938 22.947 3.55313C23.6194 3.81146 24.1115 4.11823 24.6036 4.61875C25.112 5.11927 25.4237 5.5875 25.6861 6.24948C25.8829 6.75 26.1126 7.50885 26.1946 8.88125C26.2602 10.3828 26.2766 10.8349 26.293 14.613C26.3094 18.4073 26.293 18.8594 26.2274 20.3609C26.1618 21.7495 25.9321 22.4922 25.7353 23.0089C25.4729 23.6708 25.1612 24.1391 24.6528 24.6396C24.1443 25.1401 23.6687 25.4469 22.9962 25.7052C22.4877 25.899 21.7168 26.125 20.3226 26.2057C18.7972 26.2703 18.338 26.2865 14.4835 26.3026C10.6454 26.3188 10.1861 26.3026 8.66072 26.238ZM20.4374 7.07292C20.4374 8.00938 21.2247 8.76823 22.1761 8.76823C23.1274 8.76823 23.9147 7.99323 23.8983 7.05677C23.8983 6.12031 23.111 5.36146 22.1597 5.36146C21.2083 5.36146 20.4374 6.13646 20.4374 7.07292ZM7.06971 14.6776C7.06971 18.7141 10.3993 21.9594 14.4999 21.9594C18.584 21.9432 21.8972 18.6818 21.8972 14.6453C21.8808 10.625 18.5676 7.3474 14.4671 7.36354C10.3665 7.37969 7.05331 10.6573 7.06971 14.6776ZM9.66125 14.6776C9.66125 12.062 11.8099 9.94687 14.4671 9.93073C17.1242 9.93073 19.2893 12.0458 19.2893 14.6615C19.2893 17.2771 17.1406 19.4083 14.4835 19.4083C11.8263 19.4083 9.67765 17.2932 9.66125 14.6776Z" fill="white" fill-opacity="0.8"/>
</svg>
