<svg width="125" height="42" viewBox="0 0 125 42" fill="none" xmlns="http://www.w3.org/2000/svg">
<path d="M99.5166 10.128C99.5166 10.4803 99.5679 10.8454 99.7088 11.1914C100.33 12.7288 101.912 13.6769 103.924 12.8761C104.404 12.684 117.71 7.32214 117.71 7.32214C117.71 7.32214 112.47 20.6082 112.271 21.1014C111.509 23.004 112.425 24.7272 113.981 25.3038C114.327 25.4319 114.686 25.4895 115.038 25.4895C116.313 25.4831 117.434 24.7336 117.985 23.2346C118.068 23.0104 124.622 5.01598 124.763 4.58678C124.846 4.33054 125 3.72838 125 3.31199C125.006 2.42156 124.673 1.58237 124.039 0.948179C123.405 0.320392 122.578 -0.00631357 121.701 9.24226e-05C121.271 9.24226e-05 120.925 0.0769644 120.4 0.24352C120.086 0.346016 103.194 6.63029 101.752 7.1684C100.311 7.7065 99.5102 8.85317 99.5166 10.128Z" fill="#ED1C24"/>
<path d="M67.8649 20.2751V19.8907H57.6217V22.5108H63.5729C62.0226 27.4178 56.4814 30.3005 56.4814 30.3005L57.9612 32.3696C57.9612 32.3696 67.8649 28.2826 67.8649 20.2751Z" fill="#454B52"/>
<path d="M64.6302 37.6673V32.5809H60.998V38.3207C60.998 40.1144 62.4266 41.4084 64.3868 41.4084H75.6421V38.7947H65.905C65.021 38.7947 64.6495 38.4424 64.6302 37.6673Z" fill="#454B52"/>
<path d="M67.4551 24.7143V27.3408H71.7727V33.6507H75.4049V19.6088H71.7727V24.7143H67.4551Z" fill="#454B52"/>
<path d="M98.7552 30.1403H102.387V19.5063H98.7552V22.8182H94.9629V25.4063H98.7552V30.1403Z" fill="#454B52"/>
<path d="M17.2827 32.3824H3.45215V38.3208C3.45215 40.1145 4.88068 41.4085 6.84092 41.4085H18.0834V33.1896C18.0834 32.7412 17.7247 32.3824 17.2827 32.3824ZM14.4576 38.7884H8.35914C7.47511 38.7948 7.09716 38.4425 7.08435 37.6674V35.0025H14.4576V38.7884Z" fill="#454B52"/>
<path d="M18.3339 19.9227V19.801H3.26065V22.4211H14.5352C14.5352 22.594 14.5352 22.8118 14.5352 23.0232C14.5352 25.4575 14.4135 27.059 14.3494 27.7124H0V30.3325H22.1071V27.7124H17.5844C17.7958 26.8861 18.3339 24.3557 18.3339 19.9227Z" fill="#454B52"/>
<path d="M40.9023 33.6956C43.9195 33.0358 46.1488 30.7745 46.1488 28.0968C46.1488 26.6554 45.5018 25.3358 44.4384 24.3173H48.2948V21.6972H40.9023V19.2245H37.2765V21.6972H29.884V24.3173H33.7404C32.677 25.3358 32.03 26.649 32.03 28.0968C32.03 30.7809 34.2593 33.0358 37.2829 33.6956V36.3477H28.0391V38.9678H50.1397V36.3477H40.9023V33.6956ZM35.7647 28.0135C35.7647 26.2262 37.2573 24.7657 39.0894 24.7657C40.9215 24.7657 42.4141 26.2198 42.4141 28.0135C42.4141 29.8072 40.9215 31.2613 39.0894 31.2613C37.2573 31.2613 35.7647 29.8072 35.7647 28.0135Z" fill="#454B52"/>
<path d="M91.8103 29.9096H95.3272C95.1798 29.0576 93.8922 22.1776 90.5419 19.7946H86.4869L83.3672 29.9929H87.0122L89.0877 22.6516C90.843 24.7015 91.695 29.2434 91.8103 29.9096Z" fill="#454B52"/>
<path d="M92.5341 38.8845C91.6116 38.8845 91.4451 38.6474 91.4451 37.8659V37.5392H102.393V32.03C102.393 31.556 102.047 31.1844 101.554 31.1844H87.877V33.7084H98.9145V35.0601H87.9666V38.3207C87.9666 40.2105 89.3247 41.4084 91.3554 41.4084H102.624V38.8845H92.5341Z" fill="#454B52"/>
</svg>
