<svg width="99" height="33" viewBox="0 0 99 33" fill="none" xmlns="http://www.w3.org/2000/svg">
<path d="M78.8174 8.02135C78.8174 8.30039 78.858 8.58959 78.9696 8.86356C79.4618 10.0812 80.7149 10.8321 82.308 10.1979C82.6885 10.0457 93.2263 5.79914 93.2263 5.79914C93.2263 5.79914 89.0761 16.3217 88.9188 16.7123C88.3151 18.2192 89.0406 19.584 90.2735 20.0406C90.5475 20.1421 90.8316 20.1877 91.1106 20.1877C92.1202 20.1826 93.0081 19.589 93.4444 18.4018C93.5104 18.2242 98.7006 3.97266 98.8123 3.63273C98.8782 3.42979 99 2.95288 99 2.6231C99.0051 1.91787 98.7412 1.25324 98.2389 0.750958C97.7367 0.25375 97.0822 -0.00500035 96.3871 7.31987e-05C96.0472 7.31987e-05 95.7732 0.0609558 95.3572 0.192868C95.1086 0.274045 81.7296 5.25119 80.5881 5.67737C79.4465 6.10355 78.8123 7.01171 78.8174 8.02135Z" fill="#ED1C24"/>
<path d="M53.7491 16.0578V15.7534H45.6365V17.8285H50.3498C49.122 21.7148 44.7334 23.9979 44.7334 23.9979L45.9054 25.6367C45.9054 25.6367 53.7491 22.3998 53.7491 16.0578Z" fill="white"/>
<path d="M51.1868 29.8326V25.8042H48.3101V30.3501C48.3101 31.7707 49.4415 32.7955 50.994 32.7955H59.9082V30.7255H52.1964C51.4962 30.7255 51.202 30.4465 51.1868 29.8326Z" fill="white"/>
<path d="M53.4243 19.5738V21.6539H56.8439V26.6514H59.7206V15.5302H56.8439V19.5738H53.4243Z" fill="white"/>
<path d="M78.2135 23.8711H81.0902V15.449H78.2135V18.072H75.21V20.1217H78.2135V23.8711Z" fill="white"/>
<path d="M13.6886 25.6469H2.73486V30.35C2.73486 31.7706 3.86626 32.7955 5.41877 32.7955H14.3228V26.2861C14.3228 25.931 14.0387 25.6469 13.6886 25.6469ZM11.4512 30.7204H6.6212C5.92105 30.7255 5.62171 30.4464 5.61156 29.8325V27.7219H11.4512V30.7204Z" fill="white"/>
<path d="M14.5205 15.7788V15.6824H2.58244V17.7575H11.5119C11.5119 17.8944 11.5119 18.0669 11.5119 18.2344C11.5119 20.1623 11.4155 21.4307 11.3647 21.9482H0V24.0233H17.5088V21.9482H13.9269C14.0943 21.2937 14.5205 19.2897 14.5205 15.7788Z" fill="white"/>
<path d="M32.3947 26.687C34.7843 26.1644 36.5499 24.3734 36.5499 22.2527C36.5499 21.1111 36.0375 20.066 35.1953 19.2593H38.2496V17.1842H32.3947V15.2258H29.5231V17.1842H23.6682V19.2593H26.7225C25.8803 20.066 25.3678 21.1061 25.3678 22.2527C25.3678 24.3785 27.1334 26.1644 29.5282 26.687V28.7874H22.207V30.8625H39.7108V28.7874H32.3947V26.687ZM28.3257 22.1867C28.3257 20.7712 29.5079 19.6144 30.9589 19.6144C32.4099 19.6144 33.5921 20.7661 33.5921 22.1867C33.5921 23.6073 32.4099 24.759 30.9589 24.759C29.5079 24.759 28.3257 23.6073 28.3257 22.1867Z" fill="white"/>
<path d="M72.7143 23.6885H75.4997C75.383 23.0137 74.3632 17.5647 71.7097 15.6774H68.4982L66.0273 23.7545H68.9142L70.558 17.9402C71.9482 19.5637 72.623 23.1608 72.7143 23.6885Z" fill="white"/>
<path d="M73.2871 30.7965C72.5565 30.7965 72.4246 30.6088 72.4246 29.9898V29.7311H81.0953V25.3678C81.0953 24.9924 80.8213 24.6981 80.4306 24.6981H69.5986V26.6971H78.3404V27.7676H69.6697V30.35C69.6697 31.8467 70.7453 32.7955 72.3536 32.7955H81.2779V30.7965H73.2871Z" fill="white"/>
</svg>
