<svg width="103" height="35" viewBox="0 0 103 35" fill="none" xmlns="http://www.w3.org/2000/svg">
<path d="M82.002 8.3454C82.002 8.63572 82.0442 8.9366 82.1603 9.22164C82.6724 10.4885 83.9761 11.2697 85.6336 10.6099C86.0295 10.4515 96.993 6.03342 96.993 6.03342C96.993 6.03342 92.6751 16.981 92.5115 17.3875C91.8834 18.9552 92.6382 20.3751 93.9209 20.8502C94.2059 20.9558 94.5015 21.0033 94.7918 21.0033C95.8422 20.998 96.766 20.3804 97.2199 19.1452C97.2886 18.9605 102.688 4.13315 102.805 3.77949C102.873 3.56835 103 3.07217 103 2.72907C103.005 1.99535 102.731 1.30387 102.208 0.781296C101.686 0.264002 101.005 -0.00520236 100.281 7.61559e-05C99.9278 7.61559e-05 99.6428 0.0634184 99.2099 0.20066C98.9513 0.285116 85.0318 5.46334 83.8442 5.90673C82.6565 6.35013 81.9967 7.29498 82.002 8.3454Z" fill="#ED1C24"/>
<path d="M55.9204 16.7066V16.3899H47.4801V18.5488H52.3838C51.1064 22.5921 46.5405 24.9675 46.5405 24.9675L47.7599 26.6724C47.7599 26.6724 55.9204 23.3047 55.9204 16.7066Z" fill="white"/>
<path d="M53.2546 31.0377V26.8466H50.2617V31.5761C50.2617 33.0541 51.4388 34.1203 53.0541 34.1203H62.3284V31.9667H54.3051C53.5766 31.9667 53.2705 31.6764 53.2546 31.0377Z" fill="white"/>
<path d="M55.5825 20.3646V22.5288H59.1402V27.7281H62.1332V16.1576H59.1402V20.3646H55.5825Z" fill="white"/>
<path d="M81.3734 24.8355H84.3663V16.0731H81.3734V18.8021H78.2485V20.9346H81.3734V24.8355Z" fill="white"/>
<path d="M14.2415 26.683H2.84521V31.5762C2.84521 33.0541 4.02232 34.1204 5.63755 34.1204H14.9013V27.3481C14.9013 26.9786 14.6057 26.683 14.2415 26.683ZM11.9137 31.9615H6.88855C6.16012 31.9668 5.84869 31.6765 5.83813 31.0378V28.8419H11.9137V31.9615Z" fill="white"/>
<path d="M15.1071 16.4162V16.3159H2.68676V18.4748H11.9769C11.9769 18.6173 11.9769 18.7968 11.9769 18.971C11.9769 20.9768 11.8767 22.2965 11.8239 22.8349H0V24.9938H18.2161V22.8349H14.4895C14.6637 22.154 15.1071 20.0689 15.1071 16.4162Z" fill="white"/>
<path d="M33.7033 27.7651C36.1894 27.2214 38.0264 25.3581 38.0264 23.1517C38.0264 21.964 37.4932 20.8766 36.617 20.0374H39.7947V17.8784H33.7033V15.8409H30.7156V17.8784H24.6242V20.0374H27.8019C26.9256 20.8766 26.3925 21.9587 26.3925 23.1517C26.3925 25.3634 28.2294 27.2214 30.7209 27.7651V29.9504H23.104V32.1093H41.3149V29.9504H33.7033V27.7651ZM29.4699 23.0831C29.4699 21.6104 30.6998 20.4069 32.2094 20.4069C33.7191 20.4069 34.949 21.6051 34.949 23.0831C34.949 24.561 33.7191 25.7593 32.2094 25.7593C30.6998 25.7593 29.4699 24.561 29.4699 23.0831Z" fill="white"/>
<path d="M75.6519 24.6456H78.5498C78.4284 23.9435 77.3674 18.2744 74.6068 16.3108H71.2655L68.6948 24.7142H71.6983L73.4085 18.665C74.8549 20.3541 75.5569 24.0966 75.6519 24.6456Z" fill="white"/>
<path d="M76.2481 32.0406C75.488 32.0406 75.3508 31.8453 75.3508 31.2013V30.9321H84.3717V26.3926C84.3717 26.002 84.0867 25.6958 83.6803 25.6958H72.4106V27.7755H81.5055V28.8893H72.4845V31.5761C72.4845 33.1332 73.6036 34.1203 75.2769 34.1203H84.5618V32.0406H76.2481Z" fill="white"/>
</svg>
