<svg width="201" height="45" viewBox="0 0 201 45" fill="none" xmlns="http://www.w3.org/2000/svg">
<path d="M20.9007 22.032L19.0144 0.356445C15.5906 1.59336 13.1289 4.98017 13.1289 8.9658C13.1289 9.92785 13.2799 10.8506 13.5439 11.7243C12.1103 10.6543 10.356 10.026 8.46022 10.026C5.49865 10.026 2.88605 11.5574 1.30151 13.8938L20.9007 22.032Z" fill="#00AE4D"/>
<path d="M20.3537 24.0447L0 19.0774C0.0471588 22.8471 2.35794 26.3418 5.9986 27.5984C6.87576 27.9027 7.77177 28.0401 8.64893 28.0598C7.22473 29.1396 6.10235 30.6711 5.49872 32.5461C4.56497 35.4715 5.14031 38.5343 6.77201 40.8315L20.3537 24.0447Z" fill="#00AE4D"/>
<path d="M22.0421 25.0557L11.2993 43.7273C14.7702 44.8267 18.6655 43.5996 20.9291 40.3797C21.4762 39.6042 21.8723 38.7599 22.1553 37.8961C22.7118 39.6336 23.7681 41.224 25.3055 42.3823C27.6917 44.1985 30.6722 44.5617 33.2753 43.6487L22.0421 25.0557Z" fill="#00AE4D"/>
<path d="M22.9761 22.0321L42.2169 13.5012C40.0287 10.4875 36.1805 9.09349 32.5399 10.3206C31.6627 10.6151 30.861 11.047 30.1442 11.587C30.6818 9.83957 30.7196 7.90566 30.1348 6.03065C29.2293 3.10523 27.0223 0.984801 24.4003 0.130737L22.9761 22.0321Z" fill="#00AE4D"/>
<path d="M23.551 23.8874L37.3025 40.2814C39.3775 37.1891 39.453 32.9385 37.2082 29.7186C36.6612 28.943 36.0198 28.2853 35.3124 27.7356C37.0762 27.7257 38.8493 27.1564 40.3867 25.998C42.7824 24.1917 44.0368 21.3546 43.9991 18.4979L23.551 23.8874Z" fill="#00AE4D"/>
<path d="M65.18 8.26V26.78H67.7V8.26H65.18ZM62.7 15.38V17.52H65.78V15.38H62.7ZM61.04 8.58V25.9H63.5V8.58H61.04ZM52.32 20.42V22.6H53.62C56 22.6 57.96 22.54 60.2 22.1L60 19.94C57.8 20.34 55.9 20.42 53.62 20.42H52.32ZM52.32 10.4V21.46H54.96V12.54H59.16V10.4H52.32ZM80.1184 13.04V15.18H84.4384V13.04H80.1184ZM83.0384 8.28V21.78H85.6984V8.28H83.0384ZM73.4784 24.34V26.46H86.1184V24.34H73.4784ZM73.4784 20.64V25.6H76.1384V20.64H73.4784ZM74.4784 10.7V11.86C74.4784 14.2 73.1584 16.62 70.0984 17.62L71.4384 19.74C74.9984 18.56 76.6384 15.34 76.6384 11.86V10.7H74.4784ZM75.0384 10.7V11.86C75.0384 15.16 76.6184 18.24 80.0584 19.38L81.3584 17.3C78.4384 16.32 77.1784 14.02 77.1784 11.86V10.7H75.0384ZM70.8184 9.52V11.62H80.7784V9.52H70.8184ZM88.6169 16.96V19.08H105.377V16.96H88.6169ZM95.6769 14.18V17.78H98.3169V14.18H95.6769ZM90.6369 13.34V15.44H103.477V13.34H90.6369ZM90.6369 9.06V14.68H93.2769V11.14H103.377V9.06H90.6369ZM96.9369 20C92.9369 20 90.4969 21.22 90.4969 23.4C90.4969 25.58 92.9369 26.8 96.9369 26.8C100.937 26.8 103.357 25.58 103.357 23.4C103.357 21.22 100.937 20 96.9369 20ZM96.9369 22C99.4169 22 100.677 22.46 100.677 23.4C100.677 24.36 99.4169 24.78 96.9369 24.78C94.4569 24.78 93.1969 24.36 93.1969 23.4C93.1969 22.46 94.4569 22 96.9369 22ZM114.015 17.16V19.74H116.675V17.16H114.015ZM106.995 15.6V17.68H123.735V15.6H106.995ZM109.055 8.8V14.62H121.615V8.8H109.055ZM118.995 10.86V12.58H111.675V10.86H118.995ZM108.915 18.84V20.82H119.095V21.76H108.935V25.24H111.555V23.6H121.715V18.84H108.915ZM108.935 24.66V26.66H122.195V24.66H108.935ZM125.414 22.48V24.64H142.174V22.48H125.414ZM132.434 18.52V23H135.094V18.52H132.434ZM127.174 9.44V19.08H140.354V9.44H137.714V12.28H129.814V9.44H127.174ZM129.814 14.36H137.714V16.96H129.814V14.36ZM144.512 10.56V12.68H159.792V10.56H144.512ZM143.812 22.78V24.92H160.572V22.78H143.812ZM150.832 20.34V23.62H153.472V20.34H150.832ZM152.132 13.48C148.272 13.48 145.852 14.82 145.852 17.1C145.852 19.38 148.272 20.72 152.132 20.72C155.992 20.72 158.412 19.38 158.412 17.1C158.412 14.82 155.992 13.48 152.132 13.48ZM152.132 15.54C154.452 15.54 155.692 16.04 155.692 17.1C155.692 18.16 154.452 18.64 152.132 18.64C149.812 18.64 148.572 18.16 148.572 17.1C148.572 16.04 149.812 15.54 152.132 15.54ZM150.832 8.46V11.88H153.472V8.46H150.832ZM169.551 12.48V14.62H172.491V12.48H169.551ZM175.451 8.26V22.12H177.971V8.26H175.451ZM171.751 8.56V21.56H174.251V8.56H171.751ZM165.511 24.34V26.46H178.451V24.34H165.511ZM165.511 20.5V25.68H168.171V20.5H165.511ZM165.451 9.5V11.88C165.451 14.08 164.471 16.48 161.951 17.72L163.391 19.74C166.331 18.36 167.531 15.14 167.531 11.88V9.5H165.451ZM165.991 9.5V11.88C165.991 15.04 167.031 18 169.771 19.28L171.231 17.26C168.911 16.14 168.031 14.02 168.031 11.88V9.5H165.991ZM193.489 8.24V26.82H196.129V8.24H193.489ZM190.309 14.76V16.92H193.789V14.76H190.309ZM181.429 20.48V22.64H182.909C186.029 22.64 188.429 22.56 191.109 22.14L190.869 20.02C188.249 20.44 185.969 20.48 182.909 20.48H181.429ZM181.429 9.8V21.16H184.069V11.96H190.009V9.8H181.429ZM183.469 14.96V17.04H189.369V14.96H183.469Z" fill="white"/>
<path d="M52.2 41H54.456C57.108 41 58.548 39.368 58.548 36.572C58.548 33.776 57.108 32.204 54.396 32.204H52.2V41ZM53.316 40.088V33.116H54.312C56.376 33.116 57.408 34.34 57.408 36.572C57.408 38.804 56.376 40.088 54.312 40.088H53.316ZM61.8657 41.168C62.6697 41.168 63.4017 40.748 64.0137 40.232H64.0617L64.1577 41H65.0577V37.004C65.0577 35.384 64.3857 34.328 62.7897 34.328C61.7457 34.328 60.8337 34.784 60.2337 35.168L60.6657 35.936C61.1697 35.588 61.8537 35.228 62.6217 35.228C63.6897 35.228 63.9537 36.032 63.9537 36.872C61.1817 37.184 59.9577 37.892 59.9577 39.308C59.9577 40.484 60.7737 41.168 61.8657 41.168ZM62.1657 40.28C61.5297 40.28 61.0257 39.98 61.0257 39.236C61.0257 38.396 61.7577 37.856 63.9537 37.604V39.416C63.3297 39.98 62.8017 40.28 62.1657 40.28ZM69.7554 41.168C70.6434 41.168 71.3274 40.868 71.9034 40.496L71.5074 39.764C71.0274 40.088 70.5114 40.292 69.8874 40.292C68.6394 40.292 67.7994 39.392 67.7154 38.012H72.1074C72.1434 37.844 72.1554 37.616 72.1554 37.388C72.1554 35.516 71.2194 34.328 69.5634 34.328C68.0634 34.328 66.6354 35.636 66.6354 37.76C66.6354 39.896 68.0154 41.168 69.7554 41.168ZM67.7034 37.22C67.8474 35.936 68.6634 35.204 69.5754 35.204C70.6074 35.204 71.1954 35.912 71.1954 37.22H67.7034ZM73.088 43.916C74.372 43.916 74.876 43.076 74.876 41.756V34.484H73.772V41.744C73.772 42.536 73.616 43.04 72.968 43.04C72.74 43.04 72.512 42.968 72.356 42.92L72.14 43.748C72.356 43.832 72.692 43.916 73.088 43.916ZM74.312 33.14C74.732 33.14 75.044 32.864 75.044 32.408C75.044 31.988 74.732 31.712 74.312 31.712C73.892 31.712 73.592 31.988 73.592 32.408C73.592 32.864 73.892 33.14 74.312 33.14ZM79.7047 41.168C80.5927 41.168 81.2767 40.868 81.8527 40.496L81.4567 39.764C80.9767 40.088 80.4607 40.292 79.8367 40.292C78.5887 40.292 77.7487 39.392 77.6647 38.012H82.0567C82.0927 37.844 82.1047 37.616 82.1047 37.388C82.1047 35.516 81.1687 34.328 79.5127 34.328C78.0127 34.328 76.5847 35.636 76.5847 37.76C76.5847 39.896 77.9647 41.168 79.7047 41.168ZM77.6527 37.22C77.7967 35.936 78.6127 35.204 79.5247 35.204C80.5567 35.204 81.1447 35.912 81.1447 37.22H77.6527ZM86.2532 41.168C87.8492 41.168 89.2652 39.908 89.2652 37.76C89.2652 35.576 87.8492 34.328 86.2532 34.328C84.6452 34.328 83.2292 35.576 83.2292 37.76C83.2292 39.908 84.6452 41.168 86.2532 41.168ZM86.2532 40.256C85.1132 40.256 84.3572 39.248 84.3572 37.76C84.3572 36.248 85.1132 35.24 86.2532 35.24C87.3812 35.24 88.1372 36.248 88.1372 37.76C88.1372 39.248 87.3812 40.256 86.2532 40.256ZM90.9985 41H92.0905V36.272C92.7385 35.624 93.2065 35.276 93.8665 35.276C94.7305 35.276 95.1025 35.792 95.1025 37.016V41H96.2065V36.872C96.2065 35.216 95.5825 34.328 94.2145 34.328C93.3145 34.328 92.6425 34.82 92.0305 35.432H91.9945L91.8865 34.484H90.9985V41ZM101.102 41H102.11V36.14C102.11 35.372 102.026 34.316 101.966 33.536H102.014L102.71 35.54L104.378 40.124H105.122L106.79 35.54L107.486 33.536H107.546C107.486 34.316 107.402 35.372 107.402 36.14V41H108.434V32.204H107.09L105.422 36.92C105.218 37.52 105.026 38.132 104.81 38.756H104.762C104.546 38.132 104.342 37.52 104.126 36.92L102.434 32.204H101.102V41ZM113.373 41.168C114.261 41.168 114.945 40.868 115.521 40.496L115.125 39.764C114.645 40.088 114.129 40.292 113.505 40.292C112.257 40.292 111.417 39.392 111.333 38.012H115.725C115.761 37.844 115.773 37.616 115.773 37.388C115.773 35.516 114.837 34.328 113.181 34.328C111.681 34.328 110.253 35.636 110.253 37.76C110.253 39.896 111.633 41.168 113.373 41.168ZM111.321 37.22C111.465 35.936 112.281 35.204 113.193 35.204C114.225 35.204 114.813 35.912 114.813 37.22H111.321ZM119.265 41.168C119.673 41.168 120.105 41.048 120.465 40.916L120.249 40.1C120.045 40.184 119.745 40.28 119.517 40.28C118.761 40.28 118.509 39.812 118.509 39.02V35.372H120.273V34.484H118.509V32.648H117.585L117.465 34.484L116.445 34.556V35.372H117.417V38.996C117.417 40.292 117.873 41.168 119.265 41.168ZM121.749 41H122.841V36.824C123.273 35.708 123.945 35.312 124.485 35.312C124.749 35.312 124.893 35.348 125.121 35.42L125.325 34.46C125.109 34.364 124.917 34.328 124.629 34.328C123.897 34.328 123.225 34.844 122.781 35.672H122.745L122.637 34.484H121.749V41ZM128.769 41.168C130.365 41.168 131.781 39.908 131.781 37.76C131.781 35.576 130.365 34.328 128.769 34.328C127.161 34.328 125.745 35.576 125.745 37.76C125.745 39.908 127.161 41.168 128.769 41.168ZM128.769 40.256C127.629 40.256 126.873 39.248 126.873 37.76C126.873 36.248 127.629 35.24 128.769 35.24C129.897 35.24 130.653 36.248 130.653 37.76C130.653 39.248 129.897 40.256 128.769 40.256ZM133.514 43.748H134.606V41.552L134.582 40.412C135.17 40.892 135.782 41.168 136.37 41.168C137.87 41.168 139.202 39.872 139.202 37.652C139.202 35.636 138.302 34.328 136.61 34.328C135.854 34.328 135.134 34.748 134.546 35.24H134.51L134.402 34.484H133.514V43.748ZM136.202 40.244C135.77 40.244 135.194 40.064 134.606 39.572V36.14C135.242 35.552 135.794 35.24 136.346 35.24C137.582 35.24 138.074 36.212 138.074 37.664C138.074 39.272 137.27 40.244 136.202 40.244ZM143.488 41.168C145.084 41.168 146.5 39.908 146.5 37.76C146.5 35.576 145.084 34.328 143.488 34.328C141.88 34.328 140.464 35.576 140.464 37.76C140.464 39.908 141.88 41.168 143.488 41.168ZM143.488 40.256C142.348 40.256 141.592 39.248 141.592 37.76C141.592 36.248 142.348 35.24 143.488 35.24C144.616 35.24 145.372 36.248 145.372 37.76C145.372 39.248 144.616 40.256 143.488 40.256ZM149.385 41.168C149.685 41.168 149.853 41.12 150.009 41.072L149.865 40.232C149.733 40.256 149.685 40.256 149.637 40.256C149.469 40.256 149.325 40.124 149.325 39.776V31.46H148.233V39.704C148.233 40.64 148.557 41.168 149.385 41.168ZM151.643 41H152.735V34.484H151.643V41ZM152.195 33.14C152.615 33.14 152.927 32.864 152.927 32.408C152.927 31.988 152.615 31.712 152.195 31.712C151.763 31.712 151.463 31.988 151.463 32.408C151.463 32.864 151.763 33.14 152.195 33.14ZM156.988 41.168C157.396 41.168 157.828 41.048 158.188 40.916L157.972 40.1C157.768 40.184 157.468 40.28 157.24 40.28C156.484 40.28 156.232 39.812 156.232 39.02V35.372H157.996V34.484H156.232V32.648H155.308L155.188 34.484L154.168 34.556V35.372H155.14V38.996C155.14 40.292 155.596 41.168 156.988 41.168ZM160.643 41.168C161.447 41.168 162.179 40.748 162.791 40.232H162.839L162.935 41H163.835V37.004C163.835 35.384 163.163 34.328 161.567 34.328C160.523 34.328 159.611 34.784 159.011 35.168L159.443 35.936C159.947 35.588 160.631 35.228 161.399 35.228C162.467 35.228 162.731 36.032 162.731 36.872C159.959 37.184 158.735 37.892 158.735 39.308C158.735 40.484 159.551 41.168 160.643 41.168ZM160.943 40.28C160.307 40.28 159.803 39.98 159.803 39.236C159.803 38.396 160.535 37.856 162.731 37.604V39.416C162.107 39.98 161.579 40.28 160.943 40.28ZM165.905 41H166.997V36.272C167.645 35.624 168.113 35.276 168.773 35.276C169.637 35.276 170.009 35.792 170.009 37.016V41H171.113V36.872C171.113 35.216 170.489 34.328 169.121 34.328C168.221 34.328 167.549 34.82 166.937 35.432H166.901L166.793 34.484H165.905V41ZM179.333 41.168C180.473 41.168 181.325 40.712 182.021 39.896L181.421 39.2C180.857 39.824 180.209 40.184 179.381 40.184C177.701 40.184 176.645 38.804 176.645 36.584C176.645 34.388 177.749 33.02 179.417 33.02C180.161 33.02 180.749 33.356 181.205 33.848L181.817 33.128C181.301 32.564 180.473 32.048 179.405 32.048C177.173 32.048 175.505 33.776 175.505 36.608C175.505 39.464 177.137 41.168 179.333 41.168ZM183.565 41H184.657V34.484H183.565V41ZM184.117 33.14C184.537 33.14 184.849 32.864 184.849 32.408C184.849 31.988 184.537 31.712 184.117 31.712C183.685 31.712 183.385 31.988 183.385 32.408C183.385 32.864 183.685 33.14 184.117 33.14ZM188.91 41.168C189.318 41.168 189.75 41.048 190.11 40.916L189.894 40.1C189.69 40.184 189.39 40.28 189.162 40.28C188.406 40.28 188.154 39.812 188.154 39.02V35.372H189.918V34.484H188.154V32.648H187.23L187.11 34.484L186.09 34.556V35.372H187.062V38.996C187.062 40.292 187.518 41.168 188.91 41.168ZM191.489 43.82C192.797 43.82 193.469 42.836 193.925 41.552L196.385 34.484H195.317L194.141 38.108C193.973 38.696 193.781 39.344 193.601 39.944H193.541C193.325 39.344 193.109 38.684 192.905 38.108L191.573 34.484H190.445L193.061 41.012L192.917 41.504C192.641 42.308 192.173 42.908 191.441 42.908C191.261 42.908 191.069 42.86 190.949 42.812L190.733 43.688C190.937 43.772 191.189 43.82 191.489 43.82Z" fill="white"/>
</svg>
