<?xml version="1.0" encoding="utf-8"?>
<!-- Generator: Adobe Illustrator 24.0.1, SVG Export Plug-In . SVG Version: 6.00 Build 0)  -->
<svg version="1.0" id="Layer_1" xmlns="http://www.w3.org/2000/svg" xmlns:xlink="http://www.w3.org/1999/xlink" x="0px" y="0px"
	 viewBox="0 0 116.78 104.94" style="enable-background:new 0 0 116.78 104.94;" xml:space="preserve">
<path d="M55.16,88.51l-4.92-4.6c-8.56-7.85-15.96-15.34-22.21-22.47s-9.36-14.52-9.36-22.15c0-5.85,1.98-10.76,5.94-14.71
	s8.86-5.94,14.71-5.94c3.28,0,6.69,0.84,10.22,2.51s6.8,4.76,9.79,9.26c3.21-4.49,6.51-7.58,9.9-9.26
	c3.39-1.68,6.76-2.51,10.11-2.51c5.85,0,10.76,1.98,14.71,5.94S100,33.43,100,39.28c0,7.71-3.19,15.14-9.58,22.31
	c-6.39,7.17-13.72,14.61-21.99,22.31l-4.92,4.49c-1.21,1.07-2.6,1.61-4.17,1.61S56.37,89.51,55.16,88.51z M57.19,35.86
	c-2.21-4-4.89-7.06-8.03-9.2c-3.14-2.14-6.42-3.21-9.85-3.21c-4.64,0-8.44,1.5-11.4,4.49s-4.44,6.78-4.44,11.34
	c0,3.78,1.16,7.67,3.48,11.66c2.32,4,5.23,7.97,8.72,11.93c3.5,3.96,7.28,7.81,11.34,11.56s7.88,7.22,11.45,10.43
	c0.21,0.21,0.5,0.32,0.86,0.32s0.64-0.11,0.86-0.32c3.57-3.14,7.38-6.6,11.45-10.38c4.07-3.78,7.85-7.65,11.34-11.61
	c3.5-3.96,6.4-7.95,8.72-11.99s3.48-7.9,3.48-11.61c0-4.57-1.5-8.35-4.49-11.34c-3-3-6.78-4.49-11.34-4.49c-3.5,0-6.8,1.05-9.9,3.16
	s-5.8,5.19-8.08,9.26c-0.29,0.43-0.61,0.75-0.96,0.96s-0.75,0.32-1.18,0.32c-0.43,0-0.82-0.11-1.18-0.32S57.41,36.29,57.19,35.86z"
	/>
</svg>
