<svg xmlns="http://www.w3.org/2000/svg" width="38" height="33.35" viewBox="0 0 38 33.35">
  <path id="heartxd" d="M22.05,38.95l-2.3-2.15A135.176,135.176,0,0,1,9.375,26.3Q5,21.3,5,15.95A9.48,9.48,0,0,1,14.65,6.3a11.115,11.115,0,0,1,4.775,1.175A11.835,11.835,0,0,1,24,11.8a13.187,13.187,0,0,1,4.625-4.325A10.582,10.582,0,0,1,33.35,6.3,9.48,9.48,0,0,1,43,15.95q0,5.4-4.475,10.425T28.25,36.8l-2.3,2.1a2.862,2.862,0,0,1-1.95.75,2.98,2.98,0,0,1-1.95-.7ZM23,14.35a12.248,12.248,0,0,0-3.75-4.3,8.046,8.046,0,0,0-4.6-1.5,7.143,7.143,0,0,0-7.4,7.4A10.838,10.838,0,0,0,8.875,21.4a35.068,35.068,0,0,0,4.075,5.575,73.335,73.335,0,0,0,5.3,5.4Q21.1,35,23.6,37.25a.608.608,0,0,0,.8,0q2.5-2.2,5.35-4.85t5.3-5.425a34.485,34.485,0,0,0,4.075-5.6A10.9,10.9,0,0,0,40.75,15.95a7.182,7.182,0,0,0-7.4-7.4,8.1,8.1,0,0,0-4.625,1.475A12.449,12.449,0,0,0,24.95,14.35a1.445,1.445,0,0,1-.45.45,1.083,1.083,0,0,1-1.1,0,1.06,1.06,0,0,1-.4-.45ZM24,23Z" transform="translate(-5 -6.3)"/>
</svg>
