<svg width="48" height="48" viewBox="0 0 48 48" fill="none" xmlns="http://www.w3.org/2000/svg">
<path d="M22.05 38.9501L19.75 36.8C15.75 33.1334 12.2917 29.6334 9.375 26.3C6.45833 22.9667 5 19.5167 5 15.95C5 13.2167 5.925 10.925 7.775 9.07505C9.625 7.22505 11.9167 6.30005 14.65 6.30005C16.1833 6.30005 17.775 6.69172 19.425 7.47505C21.075 8.25838 22.6 9.70005 24 11.8C25.5 9.70005 27.0417 8.25838 28.625 7.47505C30.2083 6.69172 31.7833 6.30005 33.35 6.30005C36.0833 6.30005 38.375 7.22505 40.225 9.07505C42.075 10.925 43 13.2167 43 15.95C43 19.55 41.5083 23.025 38.525 26.375C35.5417 29.725 32.1167 33.2 28.25 36.8L25.95 38.9001C25.3833 39.4001 24.7333 39.6501 24 39.6501C23.2667 39.6501 22.6167 39.4167 22.05 38.9501V38.9501ZM23 14.35C21.9667 12.4834 20.7167 11.05 19.25 10.05C17.7833 9.05005 16.25 8.55005 14.65 8.55005C12.4833 8.55005 10.7083 9.25005 9.325 10.65C7.94167 12.05 7.25 13.8167 7.25 15.95C7.25 17.7167 7.79167 19.5334 8.875 21.4C9.95833 23.2667 11.3167 25.125 12.95 26.975C14.5833 28.825 16.35 30.625 18.25 32.375C20.15 34.125 21.9333 35.75 23.6 37.25C23.7 37.35 23.8333 37.4001 24 37.4001C24.1667 37.4001 24.3 37.35 24.4 37.25C26.0667 35.7834 27.85 34.1667 29.75 32.4001C31.65 30.6334 33.4167 28.825 35.05 26.975C36.6833 25.125 38.0417 23.2584 39.125 21.375C40.2083 19.4917 40.75 17.6834 40.75 15.95C40.75 13.8167 40.05 12.05 38.65 10.65C37.25 9.25005 35.4833 8.55005 33.35 8.55005C31.7167 8.55005 30.175 9.04171 28.725 10.025C27.275 11.0084 26.0167 12.45 24.95 14.35C24.8167 14.55 24.6667 14.7 24.5 14.8C24.3333 14.9 24.15 14.95 23.95 14.95C23.75 14.95 23.5667 14.9 23.4 14.8C23.2333 14.7 23.1 14.55 23 14.35V14.35Z" fill="black"/>
</svg>
