<svg width="100" height="100" viewBox="0 0 100 100" fill="none" xmlns="http://www.w3.org/2000/svg">
<path d="M86.53 28.9698H13.02C9.99999 28.9698 7.54999 26.5198 7.54999 23.4998C7.54999 20.4798 9.99999 18.0298 13.02 18.0298H86.53C89.55 18.0298 92 20.4798 92 23.4998C92 26.5198 89.55 28.9698 86.53 28.9698Z" fill="#4D4D4D"/>
<path d="M86.53 55.5601H13.02C9.99999 55.5601 7.54999 53.1101 7.54999 50.0901C7.54999 47.0701 9.99999 44.6201 13.02 44.6201H86.53C89.55 44.6201 92 47.0701 92 50.0901C92 53.1101 89.55 55.5601 86.53 55.5601Z" fill="#4D4D4D"/>
<path d="M86.53 82.15H13.02C9.99999 82.15 7.54999 79.7 7.54999 76.68C7.54999 73.66 9.99999 71.21 13.02 71.21H86.53C89.55 71.21 92 73.66 92 76.68C92 79.7 89.55 82.15 86.53 82.15Z" fill="#4D4D4D"/>
</svg>
