<svg xmlns="http://www.w3.org/2000/svg" width="192" height="39.031" viewBox="0 0 192 39.031">
  <g id="logo" transform="translate(0 0)">
    <path id="path178" d="M411.18,672.065a10,10,0,0,0-4.088-1.155c-1.155,0-1.893.417-1.893,1.06,0,1.95,6.568,1.4,6.568,5.906,0,2.48-2.082,3.918-4.959,3.918a8.752,8.752,0,0,1-4.657-1.25v-2.783c1.856,1.231,2.991,1.666,4.411,1.666,1.23,0,1.893-.435,1.893-1.192,0-2.121-6.569-1.344-6.569-5.981,0-2.234,1.931-3.71,4.922-3.71a10.555,10.555,0,0,1,4.372,1v2.517" transform="translate(-359.999 -649.471)"/>
    <path id="path180" d="M433.319,684.653c-.284,0-.455-.171-.455-.606v-3.975c0-1.912-1.5-2.65-3.691-2.65a7.1,7.1,0,0,0-3.785,1.059v2.234a4.764,4.764,0,0,1,3.217-1.457c1.192,0,1.572.643,1.514,1.457-3.652,1.136-5.186,1.553-5.186,3.635a2.329,2.329,0,0,0,2.442,2.139,4.875,4.875,0,0,0,2.877-.985c.19.7.624.985,1.533.985a5.721,5.721,0,0,0,2.574-.8V684.16c-.643.455-.852.492-1.04.492Zm-3.2-.454a2.322,2.322,0,0,1-1.514.662.909.909,0,0,1-.889-.927c0-.871.776-1.25,2.4-1.837v2.1" transform="translate(-372.186 -654.165)"/>
    <path id="path182" d="M444.2,677.782h2.934l1.854,4.808,1.874-4.808h2.915l-4.013,8.9h-1.533l-4.032-8.9" transform="translate(-382.376 -654.355)"/>
    <path id="path184" d="M468.122,682.4h6.265a4.562,4.562,0,1,0-9.1-.416c0,2.725,1.987,4.505,5.054,4.505a6.324,6.324,0,0,0,3.9-1.155v-1.724a5.124,5.124,0,0,1-3.237,1.25,2.551,2.551,0,0,1-2.877-2.461Zm1.95-3.351a1.878,1.878,0,0,1,1.893,1.912h-3.787a1.855,1.855,0,0,1,1.893-1.912" transform="translate(-393.521 -654.165)"/>
    <path id="path186" d="M503.169,676.577h-3.18v3.6a1.268,1.268,0,0,0,1.344,1.4,3.816,3.816,0,0,0,1.836-.51v1.988a6.215,6.215,0,0,1-2.536.549c-1.817,0-3.388-.833-3.388-3.275v-3.748H496v-.53l3.653-4.089h.341V674.7h3.18v1.874" transform="translate(-409.76 -651.275)"/>
    <path id="path188" d="M516.243,674.378h.038a3.373,3.373,0,0,1,2.764-1.457,3.059,3.059,0,0,1,3.2,3.332v5.564H519.5v-4.979c0-1.305-.568-1.911-1.42-1.911-.643,0-1.192.4-1.836,1.325v5.564H513.5V668.907h2.745v5.47" transform="translate(-419.014 -649.662)"/>
    <path id="path190" d="M537.939,682.4H544.2a4.562,4.562,0,1,0-9.1-.416c0,2.725,1.988,4.505,5.053,4.505a6.32,6.32,0,0,0,3.9-1.155v-1.724a5.119,5.119,0,0,1-3.236,1.25,2.551,2.551,0,0,1-2.877-2.461Zm1.949-3.351a1.877,1.877,0,0,1,1.893,1.912H538a1.854,1.854,0,0,1,1.892-1.912" transform="translate(-430.436 -654.165)"/>
    <path id="path192" d="M579.805,680.508a10.023,10.023,0,0,1-5.073,1.288c-5.015,0-7.514-3.256-7.514-6.588,0-3.445,2.82-6.662,7.76-6.662a9.1,9.1,0,0,1,4.676,1.136v2.877a9.008,9.008,0,0,0-4.449-1.325c-2.745,0-4.676,1.628-4.676,3.918,0,2.309,1.912,3.956,4.6,3.956a10.033,10.033,0,0,0,4.675-1.42v2.82" transform="translate(-447.418 -649.471)"/>
    <path id="path194" d="M600.73,674.378h.038a3.373,3.373,0,0,1,2.764-1.457,3.059,3.059,0,0,1,3.2,3.332v5.564h-2.745v-4.979c0-1.305-.568-1.911-1.42-1.911-.643,0-1.192.4-1.836,1.325v5.564h-2.745V668.907h2.745v5.47" transform="translate(-463.686 -649.662)"/>
    <path id="path196" d="M620.63,686.509h2.745v-8.726H620.63Z" transform="translate(-475.66 -654.355)"/>
    <path id="path198" d="M623.338,670.058a1.514,1.514,0,1,1-1.514-1.514,1.519,1.519,0,0,1,1.514,1.514" transform="translate(-475.491 -649.47)"/>
    <path id="path200" d="M630.713,681.816h2.745V668.907h-2.745Z" transform="translate(-480.991 -649.662)"/>
    <path id="path202" d="M646.182,668.907v4.562a5.072,5.072,0,0,0-2.271-.549,4.194,4.194,0,0,0-4.24,4.524c0,2.612,1.741,4.543,4.088,4.543a3.58,3.58,0,0,0,2.423-.871v.7h2.745V668.907Zm0,10.524a2.3,2.3,0,0,1-1.628.719c-1.286,0-2.1-1.06-2.1-2.65,0-1.741.814-2.745,2.195-2.745a2.969,2.969,0,0,1,1.534.511v4.165" transform="translate(-485.727 -649.662)"/>
    <path id="path204" d="M666.185,680.091h.038c.813-1.817,1.722-2.668,2.782-2.668a2.984,2.984,0,0,1,1.818.794l-.758,2.423a3.157,3.157,0,0,0-1.628-.643c-1,0-1.646.946-2.251,2.555v3.766H663.44v-8.726h2.745v2.5" transform="translate(-498.296 -654.165)"/>
    <path id="path206" d="M682.387,682.4h6.265a4.562,4.562,0,1,0-9.1-.416c0,2.725,1.988,4.505,5.054,4.505a6.319,6.319,0,0,0,3.9-1.155v-1.724a5.119,5.119,0,0,1-3.236,1.25,2.551,2.551,0,0,1-2.877-2.461Zm1.95-3.351a1.877,1.877,0,0,1,1.892,1.912h-3.785a1.855,1.855,0,0,1,1.893-1.912" transform="translate(-506.813 -654.165)"/>
    <path id="path208" d="M704.575,678.84a3.515,3.515,0,0,1,2.839-1.418,3.055,3.055,0,0,1,3.18,3.351v5.545h-2.745V681c0-1.23-.587-1.741-1.362-1.741-.682,0-1.193.359-1.912,1.439v5.622H701.83v-8.726h2.745v1.249" transform="translate(-518.594 -654.164)"/>
    <path id="path210" d="M347.706,638.713c1.74-1.79,2.513-2.618,2.392-3.108a1.644,1.644,0,0,0-.994-.963,2.542,2.542,0,0,0-1.848-.218,6.278,6.278,0,0,0-.976.891l-.549.538h0c-.3-.352-.623-.706-.941-1.024a17.345,17.345,0,0,0-8.446-4.647,5.319,5.319,0,0,0-4.573-2.095,5.151,5.151,0,0,0-3.668,2.132,19.457,19.457,0,0,0-9.034,4.89v0a4.016,4.016,0,0,0-2.447.279,1.227,1.227,0,0,0-.762.743c-.057.223.012.582.845,1.675v0a19.167,19.167,0,0,0-3.678,12.15,17.508,17.508,0,0,0,5.072,11.565,17.26,17.26,0,0,0,3.606,2.764h0a21.345,21.345,0,0,0,19.9.662l.012,0a1.081,1.081,0,0,0,.521-1.393l-.062-.172c-.845-2.308-3.418-9.334-1.3-15.438.888-2.554,3.122-5.186,5.036-7.24h0a17.026,17.026,0,0,1,2.026,9.986,15.557,15.557,0,0,1-3.693,8.55h0a.364.364,0,0,0-.1.252.615.615,0,0,0,.019.118l.163.462a.369.369,0,0,0,.614.121h.012a18.725,18.725,0,0,0,2.869-21.479h0Zm-23.073,13.193a35.247,35.247,0,0,0-1.164,10.34v0a17.619,17.619,0,0,1-3.431-2.665,17.311,17.311,0,0,1-4.989-10.342,16.046,16.046,0,0,1,2.442-10.451h0c.621.743,1.375,1.6,2.164,2.5a53.835,53.835,0,0,1,5.153,6.426c.6,1,.306,2.2-.174,4.193Zm19.088-14.186c-4.085,3.579-7.831,5.414-11.125,5.436a13.377,13.377,0,0,1-7.786-2.78A30.6,30.6,0,0,1,320.017,636l-.1-.107h0a15.612,15.612,0,0,1,7.194-3.8v0h0s0,0,0,0a7.841,7.841,0,0,0-.382,3.246,7.384,7.384,0,0,0,2.482,5.018,4.951,4.951,0,0,0,7.205-.63,7.375,7.375,0,0,0,1.573-5.372,8.152,8.152,0,0,0-.171-1.1h0a17.431,17.431,0,0,1,5.025,3.516c.3.3.594.616.879.947h0" transform="translate(-313.003 -628.069)" fill="#ed1b2d"/>
  </g>
</svg>
