<svg xmlns="http://www.w3.org/2000/svg" width="245.719" height="275.79" viewBox="0 0 245.719 275.79">
  <g id="circle_text" transform="translate(-808.651 452.429) rotate(-45)">
    <g id="그룹_1" data-name="그룹 1" transform="translate(745.85 295.591)">
      <path id="패스_1" data-name="패스 1" d="M828.478,306.173c.348,6.655,5.04,13.122,10.564,15.275l-1.848,2.783c-4.245-1.812-7.96-5.931-9.977-11.033-1.377,5.565-4.628,10.292-8.774,12.706l-2.172-2.611c5.223-2.838,9.281-10.048,8.919-16.946l-.342-6.534,3.286-.171Zm16.372-10.582,1.909,36.478-3.327.174-1.911-36.478Z" transform="translate(-714.107 -295.591)" fill="#fff"/>
      <path id="패스_2" data-name="패스 2" d="M868.858,336.116l-.827,2.55-23.344-7.554,3.54-10.937,3.17,1.024-2.716,8.388Zm-7.653-15.542-16.195-5.24,5.215-16.118,16.195,5.242Zm1.3-14.567-10.012-3.24-3.565,11.016,10.012,3.24Zm7.261,23.742-3.17-1.026,8.056-24.891,3.168,1.024Z" transform="translate(-701.298 -293.957)" fill="#fff"/>
      <path id="패스_3" data-name="패스 3" d="M867.688,326.429c5.15,4.159,12.284,9.871,19.24,13.926l-1.336,2.105c-7.325-3.987-14.231-9.462-19.349-13.6Zm25.673,2.153c-3.192,3.949-8.545,4.113-12.968.541-4.39-3.549-5.387-8.844-2.2-12.791,3.216-3.981,8.578-4.088,12.968-.54C895.587,319.365,896.576,324.6,893.361,328.582Zm-12.636-10.209c-2.118,2.622-1.451,6.189,1.455,8.538,2.938,2.373,6.534,2.252,8.652-.37,2.144-2.653,1.483-6.164-1.455-8.538C886.472,315.654,882.867,315.72,880.724,318.373Zm26.024,6.565-22.945,28.4-2.591-2.093,22.945-28.4Z" transform="translate(-691.582 -287.639)" fill="#fff"/>
      <path id="패스_4" data-name="패스 4" d="M901.6,378.422c-3.718,1.635-7.647-1.652-10.7-8.607s-2.817-12.072.9-13.707c3.756-1.65,7.685,1.638,10.741,8.593S905.359,376.772,901.6,378.422Zm-1.34-3.049c2.231-.979,2.157-4.586-.065-9.643-2.238-5.1-4.843-7.589-7.074-6.608-2.194.963-2.12,4.568.119,9.664C895.465,373.842,898.069,376.337,900.263,375.372Zm.509-20.454c-1.847-4.2-.905-8.121,2.591-9.656,3.421-1.5,6.979.438,8.826,4.641s.852,8.1-2.571,9.6C906.124,361.042,902.617,359.121,900.772,354.918Zm2.269-1c1.143,2.6,3.3,3.784,5.387,2.87,2.044-.9,2.637-3.289,1.493-5.892-1.159-2.64-3.3-3.784-5.349-2.886C902.488,348.929,901.881,351.281,903.041,353.921Zm2.951,13.788-1.274-2.9,19.265-8.464,1.274,2.9-8.442,3.708,1.863,4.239,9.073-3.985,1.291,2.938-21.123,9.279-1.291-2.938,9.558-4.2-1.861-4.241Zm11.655-10.132L910.2,340.618l2.418-1.062,3.07,6.991,3.72-1.632,1.323,3.012-3.72,1.634,3.039,6.917Z" transform="translate(-681.417 -275.773)" fill="#fff"/>
      <path id="패스_5" data-name="패스 5" d="M905.486,373.494l1.184,25.2-11.362.532-.157-3.327,8.684-.408-1.026-21.872Zm7.622,28.963-2.719.128-1.545-32.95,2.717-.128.7,14.851,4.344-.2-.492-10.469,13.594-.638.154,3.286-4.139.2.83,17.691,4.139-.194.154,3.287-13.592.637-.492-10.469-4.342.2Zm5.793-25.607.831,17.692,4.219-.2-.83-17.691Z" transform="translate(-678.551 -262.273)" fill="#fff"/>
      <path id="패스_6" data-name="패스 6" d="M898.666,400.209l-7.052,21.375-2.469-.815,8.069-24.461,8.3,2.736-6.7,20.3,3.086,1.017,6.733-20.411,2.394.789-7.764,23.536-7.795-2.571,6.708-20.334Zm8.792,29.9-2.547-.84,10.337-31.331,2.546.84Zm17.511-25.069c3.9,1.285,4.516,6.539,2.011,14.139s-6.132,11.454-10.029,10.168-4.478-6.526-1.972-14.127S921.07,403.75,924.969,405.036Zm-1.069,3.241c-2.315-.765-4.7,2.044-6.568,7.715s-1.628,9.346.688,10.11,4.695-2.044,6.566-7.717S926.213,409.04,923.9,408.277Z" transform="translate(-681.259 -250.192)" fill="#fff"/>
      <path id="패스_7" data-name="패스 7" d="M894.681,466.3l-25.456-26.053,2.381-2.327,25.456,26.053Zm-10.55-18.931a91,91,0,0,1,6.614-8.165l-9.167-9.381,2.382-2.327,9.025,9.236c2.471-2.642,4.909-5.083,7.059-7.183l2.278,1.692c-4.85,4.74-11.387,11.239-16.257,17.7Zm23.624-6.676c3.122,3.2,2.491,8.069-1.4,11.873-3.863,3.775-8.75,4.291-11.872,1.1-3.093-3.166-2.462-8.04,1.4-11.814C899.773,438.042,904.66,437.524,907.755,440.689Zm-2.3,2.243c-1.986-2.034-5.121-1.639-7.677.859-2.526,2.469-2.993,5.594-1.005,7.627s5.12,1.638,7.647-.83C906.98,448.089,907.446,444.964,905.46,442.932Z" transform="translate(-690.238 -236.135)" fill="#fff"/>
      <path id="패스_8" data-name="패스 8" d="M868.742,444.087,849.5,452.4l-1.079-2.5,22.292-9.636,4.142,9.579L871.8,451.17Zm-14.383,28.959-1.113-2.572,4.922-2.127L853.2,456.866l3.057-1.322,10.846,25.088-3.057,1.322-4.77-11.034ZM871.034,454.2c4.734-2.047,9.041-.989,10.669,2.777,1.612,3.727-.567,7.59-5.3,9.636s-9.079,1.005-10.691-2.723C864.083,460.127,866.3,456.248,871.034,454.2Zm-3.707,18.548,19.72-8.526,1.063,2.462-8.313,3.594,1.771,4.1-3.055,1.322-1.773-4.1-8.349,3.611Zm4.738-16.163c-3.019,1.306-4.463,3.7-3.447,6.048,1,2.311,3.731,2.9,6.75,1.594s4.425-3.684,3.425-5.995C877.778,455.886,875.084,455.281,872.065,456.587Z" transform="translate(-699.613 -230.376)" fill="#fff"/>
      <path id="패스_9" data-name="패스 9" d="M820.136,472.3l-.779,11.146-3.366-.235,1.9-27.116,3.364.235-.924,13.214,7.337.514-.193,2.756Zm-2.865-21.95.19-2.716,24.278,1.7-.756,10.823-3.364-.235.567-8.107ZM827.623,461.9a14.967,14.967,0,0,1,8.525,8.578,14.764,14.764,0,0,1,9.639-7.96l1.48,2.71c-5.519,1.446-9.443,5.735-9.8,10.8l-.08,1.134,8.066.564-.187,2.675-8.066-.564-.325,4.661-3.324-.232.325-4.661-8.024-.56.187-2.677,8.024.561.08-1.134c.337-4.824-3.057-9.3-8.327-11.375Z" transform="translate(-714.233 -227.058)" fill="#fff"/>
      <path id="패스_10" data-name="패스 10" d="M786.6,459.241l1.169-2.5,4.857,2.27,5.485-11.737,3.018,1.41-11.352,24.283-3.016-1.41,4.695-10.044Zm25.219,1.388c4.931,2.305,7.045,7.373,4.808,12.156s-7.48,6.411-12.41,4.106-7.043-7.373-4.808-12.156S806.893,458.324,811.823,460.629Zm6.388-10.689-18.985-8.874,1.152-2.465,22,10.286-4.886,10.448-3.018-1.41Zm-7.608,13.3a6.094,6.094,0,1,0,3.084,8.168A5.976,5.976,0,0,0,810.6,463.241Z" transform="translate(-727.48 -231.128)" fill="#fff"/>
      <path id="패스_11" data-name="패스 11" d="M761.514,447.377,787.783,422l2.314,2.4-26.27,25.375Zm13.737-1.974c3.655-3.528,8.989-3.032,12.939,1.058,3.924,4.062,4.262,9.44.609,12.968-3.682,3.556-9.016,3-12.939-1.058C771.91,454.279,771.571,448.958,775.251,445.4Zm11.291,11.689c2.426-2.343,2.2-5.967-.4-8.655-2.624-2.717-6.211-3.038-8.636-.695-2.453,2.371-2.228,5.937.4,8.654C780.5,459.084,784.088,459.462,786.542,457.091Zm13.93-6.395c-4.6-4.763-10.979-11.31-17.389-16.19l1.586-1.927c6.781,4.859,12.964,11.143,17.537,15.877Z" transform="translate(-738.789 -238.61)" fill="#fff"/>
      <path id="패스_12" data-name="패스 12" d="M748.339,401.223l8.393,28.1-2.491.744-3.755-12.571-3.5,1.047-.952-3.192,3.5-1.046-3.685-12.337Zm5.574,13.552c-2.149-7.2-1.619-11.808,1.689-12.8s6.279,2.575,8.43,9.774,1.608,11.771-1.7,12.758S756.065,421.975,753.913,414.775Zm2.257-.675c1.512,5.06,3.332,7.611,5.16,7.065,1.792-.535,1.917-3.667.4-8.726s-3.332-7.609-5.121-7.074C754.785,405.91,754.661,409.043,756.171,414.1Zm5.36-18.809,2.53-.756,9.424,31.563-2.529.754Zm11.387.8c3.54-1.058,6.711,2.743,8.976,10.332s1.7,12.5-1.841,13.562c-3.463,1.034-6.672-2.755-8.938-10.344S769.454,397.122,772.918,396.087Zm.976,3.269c-1.947.582-2.067,4.008-.406,9.574s3.643,8.365,5.588,7.783c1.985-.592,2.107-4.02.445-9.585S775.879,398.764,773.895,399.356Z" transform="translate(-745.85 -250.991)" fill="#fff"/>
    </g>
  </g>
</svg>
