<svg width="119" height="56" viewBox="0 0 119 56" fill="none" xmlns="http://www.w3.org/2000/svg">
<path d="M26.1131 56C40.5229 56 52.2262 43.4781 52.2262 28.0062C52.2262 12.5335 40.5229 0 26.1131 0C11.681 0 0 12.5335 0 28.0062C0 43.4781 11.681 56 26.1131 56Z" fill="#A50034"/>
<path d="M25.0625 15.7156V40.2844H32.3411V38.0753H27.1603V15.7156H25.0625Z" fill="white"/>
<path d="M17.7745 22.4192C19.5061 22.4192 20.902 20.9082 20.902 19.063C20.902 17.2164 19.5061 15.6996 17.7745 15.6996C16.0428 15.6996 14.647 17.2164 14.647 19.063C14.647 20.9097 16.0428 22.4192 17.7745 22.4192Z" fill="white"/>
<path d="M27.1597 4.57053C26.8867 4.55603 26.3679 4.5379 26.1199 4.5379C14.0667 4.5379 4.2572 15.0681 4.2572 27.9946C4.2572 34.2732 6.5307 40.1582 10.6487 44.5838C14.7835 48.9992 20.2703 51.4389 26.1199 51.4389C31.9472 51.4389 37.4326 48.9992 41.5601 44.5838C45.6882 40.1582 47.9725 34.2732 47.9725 27.9946V26.9512H47.0881H32.3614V29.1104H45.8902C45.8902 29.1575 45.8902 29.3866 45.8807 29.446C45.1929 40.4968 36.5922 49.2493 26.1199 49.2493C20.8189 49.2493 15.8483 47.0373 12.1073 43.0199C8.35422 39.0192 6.28612 33.6896 6.28612 27.9938C6.28612 22.3307 8.35422 16.9735 12.1073 12.9605C15.8483 8.95111 20.8189 6.73907 26.1199 6.73907C26.3483 6.73907 26.9036 6.73907 27.1597 6.75357V4.57053Z" fill="white"/>
<path d="M71.8647 9.42672H64.0179V45.8794H88.119V38.7836H71.8647V9.42672ZM105.381 31.988H111.771V38.3616C110.593 38.8431 108.295 39.323 106.109 39.323C99.0466 39.323 96.6941 35.4739 96.6941 27.656C96.6941 20.2006 98.9345 15.8047 105.997 15.8047C109.922 15.8047 112.163 17.1286 114.01 19.6553L118.889 14.8419C115.918 10.2743 110.704 8.89093 105.829 8.89093C94.8408 8.89093 89.0689 15.3262 89.0689 27.5951C89.0689 39.8044 94.2814 46.4203 105.774 46.4203C111.042 46.4203 116.199 44.9775 119 42.8727V25.1894H105.381V31.988Z" fill="white"/>
</svg>
