<svg xmlns="http://www.w3.org/2000/svg" xmlns:xlink="http://www.w3.org/1999/xlink" width="213.254" height="47.48" viewBox="0 0 213.254 47.48">
  <defs>
    <radialGradient id="radial-gradient" cx="0.75" cy="0.3" r="1.033" gradientTransform="translate(0.006) scale(0.987 1)" gradientUnits="objectBoundingBox">
      <stop offset="0" stop-color="#008ed2"/>
      <stop offset="0.66" stop-color="#00398f"/>
      <stop offset="1" stop-color="#0072c0"/>
    </radialGradient>
    <radialGradient id="radial-gradient-2" cx="0.77" cy="0.58" r="0.951" gradientTransform="translate(-0.01) scale(1.021 1)" gradientUnits="objectBoundingBox">
      <stop offset="0" stop-color="#b9e6fb"/>
      <stop offset="0.63" stop-color="#00b8eb"/>
      <stop offset="1" stop-color="#88d5f8"/>
    </radialGradient>
  </defs>
  <g id="logo" transform="translate(-198.014 -352.595)">
    <g id="그룹_1" data-name="그룹 1">
      <path id="패스_1" data-name="패스 1" d="M238.507,359.515a23.738,23.738,0,1,1-27.9-4.146l3.281-.243S226.418,348.629,238.507,359.515Z" fill-rule="evenodd" fill="url(#radial-gradient)"/>
      <path id="패스_2" data-name="패스 2" d="M205.845,380.678a16.686,16.686,0,0,0,14.565,2.6,16.1,16.1,0,0,0,9.87-8.6c1.887-4.387.876-10.053-4.181-11.677-3.1-1-6.867.434-9.3,2.374-2.011,1.6-4.149,4.016-7.073,2.966-2.286-.821-3.127-3.689-1.169-7.114,1.942-3.4,6.1-6.7,12.715-7.155a24.462,24.462,0,0,1,17.238,5.438,23.754,23.754,0,0,0-27.9-4.146A19.083,19.083,0,0,0,202.5,363.9c-2.591,5.544-2.022,12.649,3.346,16.777Zm-4.8-15.956c-3.207,7.53-.85,16.794,6.577,21,6.775,3.838,16.181,3.367,22.076-2.348,1.9-1.841,3.347-4.621,5.679-5.818a3.637,3.637,0,0,1,3.588.016c1.865,1.247,1.926,3.533,1.247,5.669a15.144,15.144,0,0,1-3.723,5.793,21.938,21.938,0,0,1-10.111,6.016,23.837,23.837,0,0,1-20.178-3.633,20.351,20.351,0,0,1-6.707-23.344A23.6,23.6,0,0,1,201.045,364.722Z" fill-rule="evenodd" fill="url(#radial-gradient-2)"/>
    </g>
    <path id="패스_3" data-name="패스 3" d="M400.184,362.557V360.89l-11.763.008q0,4.407.007,8.813a2.02,2.02,0,0,0,.67,1.607,2.7,2.7,0,0,0,1.842.583l10.18-.007V370.2l-9.116.007L392,362.563l8.188-.006ZM300.65,375.888a1.5,1.5,0,0,0-1.539-1.441l-4.984,0,0-3.978,9.442-.007V368.8l-4.039,0a4.527,4.527,0,0,0,.545-.858,6.284,6.284,0,0,0,.328-.954,9.559,9.559,0,0,0,.245-.988,5.882,5.882,0,0,0,.081-.964q0-1.638,0-3.276a1.5,1.5,0,0,0-1.54-1.44l-15.137.012V362l13.073-.011,0,3.144a14.889,14.889,0,0,1-.121,1.906,7.175,7.175,0,0,1-.449,1.763l-15.256.011v1.667l9.252-.006,0,3.978-6.605.005v1.667l13.073-.01,0,6.05,3.63,0q0-3.138-.005-6.275Zm92.657-1.059h-2.038q0,2.5,0,5a2.026,2.026,0,0,0,.712,1.655,2.828,2.828,0,0,0,1.856.582l13.946-.009v-1.667l-12.936.009,0-4.132a1.5,1.5,0,0,0-1.538-1.441Zm12.4-14.706a1.5,1.5,0,0,1,1.539,1.44q0,1.65,0,3.3l4.013,0v1.667l-4.013,0,.008,9.7-3.576,0q0-8.052-.012-16.1l2.037,0Zm-29.9.023H373.9q.009,10.969.017,21.938l3.357,0-.01-14.2,2.456,0,.01,14.2,3.358,0q-.008-10.291-.016-20.584a1.405,1.405,0,0,0-1.445-1.353l-1.913,0q0,3.036.005,6.073l-2.456,0q0-2.359,0-4.72a1.4,1.4,0,0,0-1.446-1.352Zm-23.369.017-2.052,0q0,5.931.008,11.861l3.6,0,0-3.311,4.012,0v-1.667l-4.012,0,0-1.926,4.012,0v-1.667l-4.012,0,0-1.837a1.507,1.507,0,0,0-1.551-1.451Zm-29.615.023h-1.912q.009,10.969.017,21.937l3.357,0-.01-12.933,2.046,0,.01,12.933,3.356,0q-.008-10.292-.015-20.584a1.4,1.4,0,0,0-1.445-1.352h-1.913q0,3.667.006,7.336l-2.046,0q0-2.992-.005-5.983a1.4,1.4,0,0,0-1.446-1.352Zm-61.651,15.17-2.037,0q0,2.287,0,4.574a2.034,2.034,0,0,0,.7,1.654,2.765,2.765,0,0,0,1.842.583l13.645-.011v-1.667l-12.608.01,0-3.7a1.5,1.5,0,0,0-1.539-1.441Zm12.106-15.133a1.5,1.5,0,0,1,1.54,1.44l0,3.7,4.011,0v1.691l-4.011,0,.006,9.29-3.575,0-.012-16.127Zm88.228,1.41,0,2,3.929,0a17.563,17.563,0,0,1-.692,5.264,16.372,16.372,0,0,1-1.13,2.884,12.318,12.318,0,0,1-1.432,2.228,13.843,13.843,0,0,1-1.541,1.609l2.078,2.023a6.854,6.854,0,0,0,1.39-1.216,15.81,15.81,0,0,0,1.281-1.645,14.184,14.184,0,0,0,1.049-1.811,16.049,16.049,0,0,0,.723-1.715,17.311,17.311,0,0,0,2.076,2.57q1.2,1.239,2.786,2.666l1.281-1.692c-.6-.538-1.148-1.044-1.639-1.512s-.944-.951-1.365-1.439a14.485,14.485,0,0,1-1.175-1.548,17.141,17.141,0,0,1-1.066-1.9,14.876,14.876,0,0,0,.38-2.168q.135-1.238.217-2.549l3.63,0,0-2.048-10.78.007Zm-14.032,11.135a7.681,7.681,0,0,0-2.482.382,6.5,6.5,0,0,0-2.019,1.122,5.306,5.306,0,0,0-1.418,1.657,4.3,4.3,0,0,0,0,3.882,5.31,5.31,0,0,0,1.421,1.629A6.359,6.359,0,0,0,345,382.57a8.473,8.473,0,0,0,4.953,0,6.23,6.23,0,0,0,2.032-1.132,5.488,5.488,0,0,0,1.4-1.633,4.184,4.184,0,0,0,0-3.882,5.519,5.519,0,0,0-1.407-1.653,6.319,6.319,0,0,0-2.034-1.119,7.7,7.7,0,0,0-2.471-.379Zm0,1.667a2.183,2.183,0,0,1,1.175.32,3.217,3.217,0,0,1,.9.821,4.065,4.065,0,0,1,.56,1.108,3.654,3.654,0,0,1-.584,3.464,2.871,2.871,0,0,1-.888.776,2.335,2.335,0,0,1-1.159.3,2.408,2.408,0,0,1-1.174-.284,2.918,2.918,0,0,1-.9-.762,3.639,3.639,0,0,1-.56-1.084,3.831,3.831,0,0,1-.207-1.227,4.005,4.005,0,0,1,.191-1.2,3.761,3.761,0,0,1,.545-1.107,3.031,3.031,0,0,1,.9-.811,2.293,2.293,0,0,1,1.2-.31Zm-13.3-8.328a4.761,4.761,0,0,1,.475-2.119,5.272,5.272,0,0,1,1.459-1.764,7.1,7.1,0,0,1,2.128-1.217,8.218,8.218,0,0,1,5.09,0,6.97,6.97,0,0,1,2.142,1.214,5.285,5.285,0,0,1,1.434,1.762,4.929,4.929,0,0,1,0,4.239,5.316,5.316,0,0,1-1.432,1.764,6.926,6.926,0,0,1-2.14,1.216,8.2,8.2,0,0,1-5.09,0,7.114,7.114,0,0,1-2.13-1.213,5.275,5.275,0,0,1-1.461-1.761,4.755,4.755,0,0,1-.479-2.121Zm9.633-.03a4.473,4.473,0,0,0-.219-1.37,4.651,4.651,0,0,0-.6-1.226,2.972,2.972,0,0,0-.956-.881,2.459,2.459,0,0,0-1.255-.332,2.5,2.5,0,0,0-1.3.334,3.1,3.1,0,0,0-.939.883,3.765,3.765,0,0,0-.572,1.215,5.133,5.133,0,0,0-.191,1.381,5.27,5.27,0,0,0,.192,1.429,3.823,3.823,0,0,0,.575,1.215,3.086,3.086,0,0,0,.941.881,2.5,2.5,0,0,0,1.3.332,2.46,2.46,0,0,0,1.255-.334,2.982,2.982,0,0,0,.954-.883,4.616,4.616,0,0,0,.6-1.226,4.524,4.524,0,0,0,.217-1.418Zm-32.629-3.86,4.967,0v-1.548l-4.967,0v1.548Zm2.486,4.4a1.778,1.778,0,0,1,1.025.309,2.762,2.762,0,0,1,.751.786,4.164,4.164,0,0,1,.478,1.036,3.848,3.848,0,0,1,.178,1.107,4.172,4.172,0,0,1-.163,1.131,3.788,3.788,0,0,1-.49,1.062,2.648,2.648,0,0,1-.75.773,1.82,1.82,0,0,1-1.024.3,1.908,1.908,0,0,1-1.077-.3,2.732,2.732,0,0,1-.78-.773,3.538,3.538,0,0,1-.45-1.048,4.48,4.48,0,0,1-.15-1.143,4.106,4.106,0,0,1,.162-1.132,3.371,3.371,0,0,1,.49-1.036,2.954,2.954,0,0,1,.778-.775,1.813,1.813,0,0,1,1.022-.3ZM308,363.839v1.62l3.548,0a8.205,8.205,0,0,0-2.646,2.026,3.748,3.748,0,0,0-.871,2.383,4.282,4.282,0,0,0,.41,1.858,5.008,5.008,0,0,0,1.256,1.571,5.573,5.573,0,0,0,1.789,1.07,6.43,6.43,0,0,0,2.2.357,6.175,6.175,0,0,0,2.183-.361,5.377,5.377,0,0,0,1.746-1.072,6.025,6.025,0,0,0,1.269-1.56,3.843,3.843,0,0,0,.448-1.871,3.706,3.706,0,0,0-.889-2.381,8.388,8.388,0,0,0-2.635-2.023l3.52,0v-1.619L308,363.839ZM258.8,361.544l6.194-.005v-1.548l-6.2,0,0,1.549Zm-3.766,1.122v1.643l3.521,0a7.439,7.439,0,0,0-1.991,1.978,3.844,3.844,0,0,0-.653,2.1,4.212,4.212,0,0,0,.424,1.869,4.619,4.619,0,0,0,1.324,1.583,6.709,6.709,0,0,0,1.953,1.083,6.864,6.864,0,0,0,2.279.367,7.037,7.037,0,0,0,2.278-.359,6.213,6.213,0,0,0,1.951-1.1,4.906,4.906,0,0,0,1.309-1.585,4.123,4.123,0,0,0,.435-1.87,3.769,3.769,0,0,0-.684-2.119,7.673,7.673,0,0,0-1.994-1.952l3.575,0v-1.644l-13.727.011Zm6.852,2.353a1.941,1.941,0,0,1,1.078.309,3.2,3.2,0,0,1,.833.785,4.1,4.1,0,0,1,.519,1.072,3.852,3.852,0,0,1,.192,1.191,4.122,4.122,0,0,1-.177,1.19,3.688,3.688,0,0,1-.531,1.1,2.765,2.765,0,0,1-.818.787,2.1,2.1,0,0,1-2.2,0,3.051,3.051,0,0,1-.834-.81,4.173,4.173,0,0,1-.505-1.1,3.918,3.918,0,0,1,0-2.335,3.8,3.8,0,0,1,.5-1.071,3.049,3.049,0,0,1,.832-.811A1.987,1.987,0,0,1,261.888,365.019Z" fill="#004485"/>
    <g id="그룹_2" data-name="그룹 2">
      <path id="패스_4" data-name="패스 4" d="M257.34,386.955h1.286v2.7l2.315-2.7h1.58l-2.636,2.962,2.746,3.322H260.95l-2.306-2.917h-.018v2.917H257.34Z" fill="#004485"/>
      <path id="패스_5" data-name="패스 5" d="M267.532,386.848a3.252,3.252,0,1,1-3.142,3.231A2.966,2.966,0,0,1,267.532,386.848Zm0,5.509c1.313,0,1.8-1.143,1.8-2.278,0-1.107-.523-2.241-1.8-2.241s-1.8,1.134-1.8,2.241C265.731,391.214,266.218,392.357,267.532,392.357Z" fill="#004485"/>
      <path id="패스_6" data-name="패스 6" d="M272.974,386.955h1.387c1.378,0,3.022-.045,3.022,1.7a1.448,1.448,0,0,1-1.323,1.458v.019c.349.026.551.369.68.647l1.029,2.458h-1.434l-.771-1.963c-.184-.467-.349-.647-.891-.647h-.413v2.61h-1.286Zm1.286,2.683h.422c.634,0,1.359-.09,1.359-.873,0-.756-.716-.82-1.359-.82h-.422Z" fill="#004485"/>
      <path id="패스_7" data-name="패스 7" d="M279.932,386.955h3.785v.99h-2.5v1.549h2.287v.99h-2.287v1.765h2.517v.99h-3.8Z" fill="#004485"/>
      <path id="패스_8" data-name="패스 8" d="M288.113,386.955h1.451l2.517,6.284h-1.424l-.551-1.44h-2.6l-.56,1.44h-1.332Zm.707,1.261H288.8l-.928,2.593h1.875Z" fill="#004485"/>
      <path id="패스_9" data-name="패스 9" d="M300.764,386.848a3.252,3.252,0,1,1-3.143,3.231A2.965,2.965,0,0,1,300.764,386.848Zm0,5.509c1.312,0,1.8-1.143,1.8-2.278,0-1.107-.523-2.241-1.8-2.241s-1.8,1.134-1.8,2.241C298.963,391.214,299.449,392.357,300.764,392.357Z" fill="#004485"/>
      <path id="패스_10" data-name="패스 10" d="M310.98,393.149a6.6,6.6,0,0,1-1.459.2c-2.076,0-3.519-1.018-3.519-3.143,0-2.151,1.342-3.357,3.519-3.357a4.344,4.344,0,0,1,1.452.26l-.092,1.063a2.686,2.686,0,0,0-1.389-.333,2.116,2.116,0,0,0-2.148,2.277,2.089,2.089,0,0,0,2.177,2.242,3.645,3.645,0,0,0,1.4-.261Z" fill="#004485"/>
      <path id="패스_11" data-name="패스 11" d="M313.164,386.955h3.783v.99h-2.5v1.549h2.287v.99h-2.287v1.765h2.518v.99h-3.8Z" fill="#004485"/>
      <path id="패스_12" data-name="패스 12" d="M321.344,386.955H322.8l2.517,6.284h-1.423l-.551-1.44h-2.6l-.56,1.44h-1.332Zm.707,1.261h-.018l-.928,2.593h1.873Z" fill="#004485"/>
      <path id="패스_13" data-name="패스 13" d="M327.31,386.955h1.581l2.443,4.7h.018v-4.7h1.23v6.284h-1.57l-2.453-4.7h-.018v4.7H327.31Z" fill="#004485"/>
      <path id="패스_14" data-name="패스 14" d="M339.033,386.955H342.6v.99H340.32v1.549h2.168v.99H340.32v2.755h-1.287Z" fill="#004485"/>
      <path id="패스_15" data-name="패스 15" d="M347.691,386.848a3.252,3.252,0,1,1-3.14,3.231A2.967,2.967,0,0,1,347.691,386.848Zm0,5.509c1.315,0,1.8-1.143,1.8-2.278,0-1.107-.523-2.241-1.8-2.241s-1.8,1.134-1.8,2.241C345.891,391.214,346.379,392.357,347.691,392.357Z" fill="#004485"/>
      <path id="패스_16" data-name="패스 16" d="M353.2,386.955h1.287v3.628c0,1.072.348,1.774,1.332,1.774s1.332-.7,1.332-1.774v-3.628h1.286v4.016c0,1.683-.975,2.377-2.618,2.377s-2.619-.694-2.619-2.377Z" fill="#004485"/>
      <path id="패스_17" data-name="패스 17" d="M361.047,386.955h1.58l2.443,4.7h.018v-4.7h1.23v6.284h-1.57l-2.453-4.7h-.018v4.7h-1.23Z" fill="#004485"/>
      <path id="패스_18" data-name="패스 18" d="M368.978,386.955h1.754c1.965,0,3.7.649,3.7,3.143s-1.737,3.141-3.7,3.141h-1.754Zm1.286,5.294h.716a2.152,2.152,0,0,0,0-4.3h-.716Z" fill="#004485"/>
      <path id="패스_19" data-name="패스 19" d="M378.682,386.955h1.451l2.517,6.284h-1.423l-.551-1.44h-2.6l-.56,1.44h-1.332Zm.707,1.261h-.018l-.928,2.593h1.873Z" fill="#004485"/>
      <path id="패스_20" data-name="패스 20" d="M385.144,387.945h-1.837v-.99h4.961v.99H386.43v5.294h-1.286Z" fill="#004485"/>
      <path id="패스_21" data-name="패스 21" d="M390.211,386.955H391.5v6.284h-1.287Z" fill="#004485"/>
      <path id="패스_22" data-name="패스 22" d="M396.941,386.848a3.252,3.252,0,1,1-3.14,3.231A2.967,2.967,0,0,1,396.941,386.848Zm0,5.509c1.315,0,1.8-1.143,1.8-2.278,0-1.107-.523-2.241-1.8-2.241s-1.8,1.134-1.8,2.241C395.141,391.214,395.629,392.357,396.941,392.357Z" fill="#004485"/>
      <path id="패스_23" data-name="패스 23" d="M402.43,386.955h1.58l2.443,4.7h.018v-4.7h1.23v6.284h-1.57l-2.453-4.7h-.018v4.7h-1.23Z" fill="#004485"/>
    </g>
  </g>
</svg>
