<svg xmlns="http://www.w3.org/2000/svg" xmlns:xlink="http://www.w3.org/1999/xlink" width="168.34" height="37.48" viewBox="0 0 168.34 37.48">
  <defs>
    <radialGradient id="radial-gradient" cx="0.75" cy="0.3" r="1.033" gradientTransform="translate(0.006) scale(0.987 1)" gradientUnits="objectBoundingBox">
      <stop offset="0" stop-color="#008ed2"/>
      <stop offset="0.66" stop-color="#00398f"/>
      <stop offset="1" stop-color="#0072c0"/>
    </radialGradient>
    <radialGradient id="radial-gradient-2" cx="0.77" cy="0.58" r="0.951" gradientTransform="translate(-0.01) scale(1.021 1)" gradientUnits="objectBoundingBox">
      <stop offset="0" stop-color="#b9e6fb"/>
      <stop offset="0.63" stop-color="#00b8eb"/>
      <stop offset="1" stop-color="#88d5f8"/>
    </radialGradient>
  </defs>
  <g id="logo_w" transform="translate(-198.014 -352.595)">
    <g id="그룹_1" data-name="그룹 1" transform="translate(198.014 352.595)">
      <path id="패스_1" data-name="패스 1" d="M229.979,358.185a18.738,18.738,0,1,1-22.02-3.273l2.59-.192S220.436,349.592,229.979,358.185Z" transform="translate(-198.014 -352.723)" fill-rule="evenodd" fill="url(#radial-gradient)"/>
      <path id="패스_2" data-name="패스 2" d="M204.237,374.763a13.172,13.172,0,0,0,11.5,2.052,12.712,12.712,0,0,0,7.791-6.785c1.49-3.463.691-7.936-3.3-9.218-2.447-.786-5.421.343-7.344,1.874-1.587,1.265-3.275,3.17-5.583,2.341-1.8-.648-2.468-2.912-.923-5.616,1.533-2.682,4.813-5.285,10.037-5.648a19.31,19.31,0,0,1,13.607,4.293A18.751,18.751,0,0,0,208,354.785a15.064,15.064,0,0,0-6.4,6.735c-2.045,4.376-1.6,9.985,2.641,13.243Zm-3.789-12.6c-2.532,5.944-.671,13.257,5.192,16.576,5.348,3.03,12.773,2.658,17.426-1.854,1.5-1.453,2.642-3.648,4.483-4.593a2.871,2.871,0,0,1,2.832.013c1.472.984,1.52,2.789.984,4.475a11.954,11.954,0,0,1-2.939,4.573,17.318,17.318,0,0,1-7.981,4.749,18.817,18.817,0,0,1-15.928-2.868,16.065,16.065,0,0,1-5.294-18.427A18.629,18.629,0,0,1,200.448,362.168Z" transform="translate(-198.056 -352.595)" fill-rule="evenodd" fill="url(#radial-gradient-2)"/>
    </g>
    <path id="패스_3" data-name="패스 3" d="M369.614,362.017V360.7l-9.286.006q0,3.479.005,6.957a1.594,1.594,0,0,0,.529,1.269,2.134,2.134,0,0,0,1.454.46l8.036-.005v-1.336l-7.2.006,0-6.036,6.463,0ZM291.043,372.54a1.182,1.182,0,0,0-1.215-1.138l-3.934,0,0-3.14,7.453-.006v-1.316l-3.188,0a3.573,3.573,0,0,0,.43-.677,4.958,4.958,0,0,0,.259-.753,7.554,7.554,0,0,0,.193-.78,4.644,4.644,0,0,0,.064-.761q0-1.293,0-2.586a1.183,1.183,0,0,0-1.216-1.137l-11.949.009v1.317l10.32-.009,0,2.482a11.754,11.754,0,0,1-.1,1.5,5.663,5.663,0,0,1-.354,1.392l-12.043.009v1.316l7.3,0,0,3.14-5.214,0v1.316l10.32-.008,0,4.776,2.865,0q0-2.477,0-4.953Zm73.142-.836h-1.609q0,1.974,0,3.949a1.6,1.6,0,0,0,.562,1.306,2.232,2.232,0,0,0,1.465.459l11.009-.007V376.1L365.4,376.1l0-3.262a1.182,1.182,0,0,0-1.214-1.137Zm9.792-11.609a1.181,1.181,0,0,1,1.215,1.137q0,1.3,0,2.6l3.168,0v1.316l-3.168,0,.006,7.653-2.823,0q0-6.356-.009-12.711l1.608,0Zm-23.6.018h-1.51q.007,8.659.013,17.318l2.65,0-.008-11.206,1.939,0,.008,11.206,2.651,0q-.006-8.124-.013-16.249a1.109,1.109,0,0,0-1.141-1.068l-1.51,0q0,2.4,0,4.794l-1.939,0q0-1.863,0-3.726a1.109,1.109,0,0,0-1.141-1.067Zm-18.447.013-1.62,0q0,4.682.006,9.363l2.844,0,0-2.614,3.167,0v-1.316l-3.167,0,0-1.52,3.167,0V362.72l-3.167,0,0-1.45a1.19,1.19,0,0,0-1.224-1.145Zm-23.378.018H307.04q.007,8.659.013,17.317l2.65,0-.008-10.209,1.615,0,.008,10.209,2.649,0q-.006-8.124-.012-16.249a1.108,1.108,0,0,0-1.141-1.067H311.3l0,5.791-1.615,0q0-2.362,0-4.723a1.109,1.109,0,0,0-1.141-1.067ZM259.883,372.12l-1.608,0q0,1.806,0,3.611a1.606,1.606,0,0,0,.55,1.306,2.183,2.183,0,0,0,1.454.46l10.771-.009v-1.316l-9.953.008,0-2.924a1.182,1.182,0,0,0-1.215-1.138Zm9.556-11.946a1.182,1.182,0,0,1,1.216,1.137l0,2.924,3.166,0v1.335l-3.166,0,0,7.333-2.822,0q0-6.366-.009-12.73Zm69.646,1.113,0,1.58,3.1,0a13.864,13.864,0,0,1-.546,4.155,12.922,12.922,0,0,1-.892,2.277,9.723,9.723,0,0,1-1.13,1.759,10.927,10.927,0,0,1-1.216,1.27l1.64,1.6a5.411,5.411,0,0,0,1.1-.96,12.477,12.477,0,0,0,1.011-1.3,11.2,11.2,0,0,0,.828-1.43,12.665,12.665,0,0,0,.571-1.354,13.663,13.663,0,0,0,1.639,2.029q.948.978,2.2,2.1l1.011-1.336c-.474-.425-.906-.824-1.294-1.194s-.745-.751-1.078-1.136a11.432,11.432,0,0,1-.928-1.222,13.533,13.533,0,0,1-.841-1.5,11.746,11.746,0,0,0,.3-1.711q.107-.977.171-2.012l2.865,0,0-1.617-8.51.005Zm-11.077,8.79a6.063,6.063,0,0,0-1.959.3,5.132,5.132,0,0,0-1.594.886,4.188,4.188,0,0,0-1.119,1.308,3.394,3.394,0,0,0,0,3.064,4.191,4.191,0,0,0,1.122,1.286,5.02,5.02,0,0,0,1.6.892,6.689,6.689,0,0,0,3.91,0,4.918,4.918,0,0,0,1.6-.894,4.332,4.332,0,0,0,1.108-1.289,3.3,3.3,0,0,0,0-3.064,4.357,4.357,0,0,0-1.111-1.3,4.988,4.988,0,0,0-1.606-.883,6.081,6.081,0,0,0-1.951-.3Zm0,1.316a1.723,1.723,0,0,1,.928.253,2.54,2.54,0,0,1,.712.648,3.208,3.208,0,0,1,.442.875,2.884,2.884,0,0,1-.461,2.734,2.267,2.267,0,0,1-.7.613,1.844,1.844,0,0,1-.915.236,1.9,1.9,0,0,1-.927-.224,2.3,2.3,0,0,1-.71-.6,2.872,2.872,0,0,1-.442-.856,3.024,3.024,0,0,1-.163-.969,3.161,3.161,0,0,1,.151-.95,2.968,2.968,0,0,1,.43-.874,2.393,2.393,0,0,1,.71-.64,1.809,1.809,0,0,1,.946-.245Zm-10.495-6.574a3.758,3.758,0,0,1,.375-1.673,4.161,4.161,0,0,1,1.152-1.392,5.608,5.608,0,0,1,1.68-.961,6.487,6.487,0,0,1,4.018,0,5.5,5.5,0,0,1,1.691.958,4.171,4.171,0,0,1,1.132,1.391,3.89,3.89,0,0,1,0,3.346,4.2,4.2,0,0,1-1.13,1.392,5.467,5.467,0,0,1-1.689.96,6.471,6.471,0,0,1-4.018,0,5.617,5.617,0,0,1-1.681-.958,4.164,4.164,0,0,1-1.153-1.39,3.753,3.753,0,0,1-.378-1.674Zm7.6-.024a3.531,3.531,0,0,0-.173-1.081,3.672,3.672,0,0,0-.475-.968,2.345,2.345,0,0,0-.755-.7,1.941,1.941,0,0,0-.991-.262,1.973,1.973,0,0,0-1.024.264,2.445,2.445,0,0,0-.741.7,2.971,2.971,0,0,0-.452.959,4.052,4.052,0,0,0-.151,1.09,4.16,4.16,0,0,0,.152,1.128,3.018,3.018,0,0,0,.454.959,2.436,2.436,0,0,0,.743.7,1.972,1.972,0,0,0,1.024.262,1.942,1.942,0,0,0,.991-.264,2.354,2.354,0,0,0,.753-.7,3.644,3.644,0,0,0,.474-.968,3.571,3.571,0,0,0,.171-1.119Zm-25.757-3.047,3.921,0v-1.222l-3.921,0v1.222Zm1.962,3.476a1.4,1.4,0,0,1,.809.244,2.181,2.181,0,0,1,.593.62,3.287,3.287,0,0,1,.377.818,3.037,3.037,0,0,1,.141.874,3.293,3.293,0,0,1-.129.893,2.991,2.991,0,0,1-.387.838,2.091,2.091,0,0,1-.592.61,1.437,1.437,0,0,1-.808.236,1.507,1.507,0,0,1-.85-.234,2.157,2.157,0,0,1-.616-.61,2.793,2.793,0,0,1-.355-.827,3.536,3.536,0,0,1-.118-.9,3.241,3.241,0,0,1,.128-.894,2.661,2.661,0,0,1,.387-.818,2.332,2.332,0,0,1,.614-.612,1.432,1.432,0,0,1,.807-.236Zm-4.482-2.2v1.279l2.8,0a6.477,6.477,0,0,0-2.089,1.6,2.959,2.959,0,0,0-.688,1.881,3.38,3.38,0,0,0,.324,1.467,3.953,3.953,0,0,0,.991,1.24,4.4,4.4,0,0,0,1.412.845,5.075,5.075,0,0,0,1.734.282,4.875,4.875,0,0,0,1.723-.285,4.244,4.244,0,0,0,1.378-.846,4.755,4.755,0,0,0,1-1.231,3.033,3.033,0,0,0,.354-1.477,2.925,2.925,0,0,0-.7-1.88,6.621,6.621,0,0,0-2.08-1.6l2.779,0v-1.278l-8.94.006Zm-38.833-1.812,4.889,0v-1.222l-4.89,0,0,1.223Zm-2.973.886v1.3l2.779,0a5.872,5.872,0,0,0-1.572,1.561,3.034,3.034,0,0,0-.515,1.655,3.325,3.325,0,0,0,.335,1.475,3.647,3.647,0,0,0,1.045,1.25,5.3,5.3,0,0,0,1.542.855,5.418,5.418,0,0,0,1.8.29,5.554,5.554,0,0,0,1.8-.283,4.9,4.9,0,0,0,1.54-.866,3.872,3.872,0,0,0,1.033-1.251,3.255,3.255,0,0,0,.343-1.476,2.975,2.975,0,0,0-.54-1.673,6.057,6.057,0,0,0-1.574-1.541l2.822,0v-1.3l-10.836.009Zm5.409,1.857a1.532,1.532,0,0,1,.851.244,2.523,2.523,0,0,1,.658.62,3.236,3.236,0,0,1,.41.846,3.04,3.04,0,0,1,.152.94,3.255,3.255,0,0,1-.14.939,2.911,2.911,0,0,1-.419.865,2.182,2.182,0,0,1-.646.621,1.657,1.657,0,0,1-1.734,0,2.408,2.408,0,0,1-.658-.639,3.3,3.3,0,0,1-.4-.864,3.093,3.093,0,0,1,0-1.843,3,3,0,0,1,.4-.845,2.407,2.407,0,0,1,.657-.64A1.568,1.568,0,0,1,260.445,363.96Z" transform="translate(-12.01 -1.558)" fill="#fff"/>
    <g id="그룹_2" data-name="그룹 2" transform="translate(244.845 379.634)">
      <path id="패스_4" data-name="패스 4" d="M257.34,386.955h1.015v2.132l1.827-2.132h1.247l-2.081,2.338,2.168,2.622H260.19l-1.82-2.3h-.014v2.3H257.34Z" transform="translate(-257.34 -386.871)" fill="#fff"/>
      <path id="패스_5" data-name="패스 5" d="M266.87,386.848a2.567,2.567,0,1,1-2.48,2.55A2.341,2.341,0,0,1,266.87,386.848Zm0,4.349c1.036,0,1.421-.9,1.421-1.8,0-.874-.413-1.769-1.421-1.769s-1.422.9-1.422,1.769C265.449,390.294,265.833,391.2,266.87,391.2Z" transform="translate(-258.825 -386.848)" fill="#fff"/>
      <path id="패스_6" data-name="패스 6" d="M272.974,386.955h1.095c1.088,0,2.386-.035,2.386,1.344a1.143,1.143,0,0,1-1.044,1.151v.015c.275.021.435.291.537.511l.812,1.94h-1.132l-.609-1.55c-.145-.369-.276-.511-.7-.511h-.326v2.06h-1.015Zm1.015,2.118h.333c.5,0,1.073-.071,1.073-.689,0-.6-.565-.647-1.073-.647h-.333Z" transform="translate(-260.633 -386.871)" fill="#fff"/>
      <path id="패스_7" data-name="패스 7" d="M279.932,386.955h2.988v.782h-1.973v1.223h1.805v.781h-1.805v1.393h1.987v.782h-3Z" transform="translate(-262.098 -386.871)" fill="#fff"/>
      <path id="패스_8" data-name="패스 8" d="M287.587,386.955h1.145l1.987,4.961h-1.124l-.435-1.137h-2.052l-.442,1.137h-1.051Zm.558,1h-.015L287.4,390h1.48Z" transform="translate(-263.295 -386.871)" fill="#fff"/>
      <path id="패스_9" data-name="패스 9" d="M300.1,386.848a2.567,2.567,0,1,1-2.481,2.55A2.341,2.341,0,0,1,300.1,386.848Zm0,4.349c1.036,0,1.421-.9,1.421-1.8,0-.874-.413-1.769-1.421-1.769s-1.422.9-1.422,1.769C298.68,390.294,299.064,391.2,300.1,391.2Z" transform="translate(-265.824 -386.848)" fill="#fff"/>
      <path id="패스_10" data-name="패스 10" d="M309.932,391.822a5.21,5.21,0,0,1-1.152.157c-1.639,0-2.778-.8-2.778-2.481a2.487,2.487,0,0,1,2.778-2.65,3.429,3.429,0,0,1,1.146.205l-.073.839a2.12,2.12,0,0,0-1.1-.263,1.671,1.671,0,0,0-1.7,1.8,1.649,1.649,0,0,0,1.718,1.77,2.878,2.878,0,0,0,1.109-.206Z" transform="translate(-267.589 -386.848)" fill="#fff"/>
      <path id="패스_11" data-name="패스 11" d="M313.164,386.955h2.986v.782h-1.972v1.223h1.805v.781h-1.805v1.393h1.988v.782h-3Z" transform="translate(-269.097 -386.871)" fill="#fff"/>
      <path id="패스_12" data-name="패스 12" d="M320.818,386.955h1.145l1.987,4.961h-1.123l-.435-1.137H320.34l-.442,1.137h-1.051Zm.558,1h-.014L320.629,390h1.478Z" transform="translate(-270.294 -386.871)" fill="#fff"/>
      <path id="패스_13" data-name="패스 13" d="M327.31,386.955h1.248l1.928,3.71h.014v-3.71h.971v4.961h-1.239l-1.936-3.709h-.014v3.709h-.972Z" transform="translate(-272.077 -386.871)" fill="#fff"/>
      <path id="패스_14" data-name="패스 14" d="M339.033,386.955h2.814v.782h-1.8v1.223h1.711v.781h-1.711v2.175h-1.016Z" transform="translate(-274.546 -386.871)" fill="#fff"/>
      <path id="패스_15" data-name="패스 15" d="M347.03,386.848a2.567,2.567,0,1,1-2.479,2.55A2.342,2.342,0,0,1,347.03,386.848Zm0,4.349c1.038,0,1.422-.9,1.422-1.8,0-.874-.413-1.769-1.422-1.769s-1.421.9-1.421,1.769C345.609,390.294,345.994,391.2,347.03,391.2Z" transform="translate(-275.708 -386.848)" fill="#fff"/>
      <path id="패스_16" data-name="패스 16" d="M353.2,386.955h1.016v2.864c0,.846.275,1.4,1.051,1.4s1.051-.554,1.051-1.4v-2.864h1.015v3.17c0,1.329-.77,1.876-2.067,1.876s-2.067-.548-2.067-1.876Z" transform="translate(-277.529 -386.871)" fill="#fff"/>
      <path id="패스_17" data-name="패스 17" d="M361.047,386.955h1.247l1.928,3.71h.014v-3.71h.971v4.961h-1.239l-1.936-3.709h-.014v3.709h-.971Z" transform="translate(-279.182 -386.871)" fill="#fff"/>
      <path id="패스_18" data-name="패스 18" d="M368.978,386.955h1.385c1.551,0,2.922.512,2.922,2.481s-1.371,2.479-2.922,2.479h-1.385Zm1.015,4.179h.565a1.7,1.7,0,0,0,0-3.4h-.565Z" transform="translate(-280.853 -386.871)" fill="#fff"/>
      <path id="패스_19" data-name="패스 19" d="M378.156,386.955H379.3l1.987,4.961h-1.123l-.435-1.137h-2.052l-.442,1.137h-1.051Zm.558,1H378.7L377.967,390h1.479Z" transform="translate(-282.37 -386.871)" fill="#fff"/>
      <path id="패스_20" data-name="패스 20" d="M384.757,387.737h-1.45v-.782h3.916v.782h-1.451v4.179h-1.015Z" transform="translate(-283.871 -386.871)" fill="#fff"/>
      <path id="패스_21" data-name="패스 21" d="M390.211,386.955h1.016v4.961h-1.016Z" transform="translate(-285.325 -386.871)" fill="#fff"/>
      <path id="패스_22" data-name="패스 22" d="M396.28,386.848a2.567,2.567,0,1,1-2.479,2.55A2.342,2.342,0,0,1,396.28,386.848Zm0,4.349c1.038,0,1.422-.9,1.422-1.8,0-.874-.413-1.769-1.422-1.769s-1.421.9-1.421,1.769C394.859,390.294,395.244,391.2,396.28,391.2Z" transform="translate(-286.081 -386.848)" fill="#fff"/>
      <path id="패스_23" data-name="패스 23" d="M402.43,386.955h1.247l1.928,3.71h.014v-3.71h.971v4.961h-1.239l-1.936-3.709H403.4v3.709h-.971Z" transform="translate(-287.898 -386.871)" fill="#fff"/>
    </g>
  </g>
</svg>
