<svg xmlns="http://www.w3.org/2000/svg" width="13.392" height="12.421" viewBox="0 0 13.392 12.421">
  <g id="sns_blog" transform="translate(-623.26 -266.06)">
    <path id="패스_46" data-name="패스 46" d="M649.741,314.51a.461.461,0,1,0,.462.461A.461.461,0,0,0,649.741,314.51Z" transform="translate(-23.559 -43.867)" fill="#fff" opacity="0.8"/>
    <path id="패스_47" data-name="패스 47" d="M697.547,314a.5.5,0,1,0,.5.5A.5.5,0,0,0,697.547,314Z" transform="translate(-66.81 -43.405)" fill="#fff" opacity="0.8"/>
    <path id="패스_48" data-name="패스 48" d="M634.86,266.06h-9.809a1.792,1.792,0,0,0-1.792,1.792v5.821a1.792,1.792,0,0,0,1.792,1.792h3.464l1.179,2.776s.081.24.277.24h0c.2,0,.277-.24.277-.24l1.179-2.776h3.433a1.792,1.792,0,0,0,1.792-1.792v-5.821A1.792,1.792,0,0,0,634.86,266.06Zm-7.394,5.145a1.109,1.109,0,0,1-1.106,1.094.919.919,0,0,1-.666-.282v.192h-.8v-3.3s0,0,0,0v0c.05.008.8,0,.8,0v1.264c.188-.322.733-.316.733-.316A1.173,1.173,0,0,1,627.467,271.2Zm1.411-1.252v2.263h-.784v-2.24c0-.3-.378-.39-.378-.39v-.79A1.085,1.085,0,0,1,628.878,269.953Zm1.859,2.349a1.214,1.214,0,1,1,1.315-1.21A1.266,1.266,0,0,1,630.737,272.3Zm4.3,0a1.119,1.119,0,0,1-1.157,1.149h-.356v-.744h.215s.491.045.485-.711c0,0-.1.306-.784.306a1.034,1.034,0,0,1-.976-1.023v-.361a1.115,1.115,0,0,1,1.094-1.066.8.8,0,0,1,.683.3v-.242h.8Z" transform="translate(0)" fill="#fff" opacity="0.8"/>
    <path id="패스_49" data-name="패스 49" d="M729.9,314.12a.485.485,0,1,0,.485.485A.486.486,0,0,0,729.9,314.12Z" transform="translate(-96.109 -43.514)" fill="#fff" opacity="0.8"/>
  </g>
</svg>
