<svg xmlns="http://www.w3.org/2000/svg" width="12.148" height="12.142" viewBox="0 0 12.148 12.142">
  <g id="sns_insta" transform="translate(-6.3 -9)">
    <g id="그룹_39" data-name="그룹 39" transform="translate(6.3 9)" opacity="0.8">
      <path id="SVGID_1_" d="M9.858,9.041a4.368,4.368,0,0,0-1.475.283,3.061,3.061,0,0,0-1.069.7,2.914,2.914,0,0,0-.7,1.076,4.544,4.544,0,0,0-.283,1.475c-.028.648-.034.855-.034,2.5s.014,1.855.041,2.5a4.288,4.288,0,0,0,.283,1.469,3.024,3.024,0,0,0,.7,1.076,2.914,2.914,0,0,0,1.076.7,4.544,4.544,0,0,0,1.475.283c.648.028.855.034,2.5.034s1.855-.007,2.5-.041a4.368,4.368,0,0,0,1.475-.283,3.024,3.024,0,0,0,1.076-.7,2.914,2.914,0,0,0,.7-1.076,4.544,4.544,0,0,0,.283-1.475c.028-.648.034-.855.034-2.5s-.007-1.855-.041-2.5a4.368,4.368,0,0,0-.283-1.475,3.024,3.024,0,0,0-.7-1.076,2.914,2.914,0,0,0-1.076-.7,4.544,4.544,0,0,0-1.475-.283C14.215,9.007,14.008,9,12.36,9s-1.855.014-2.5.041m.069,10.969A3.367,3.367,0,0,1,8.8,19.8a2.028,2.028,0,0,1-1.151-1.151,3.36,3.36,0,0,1-.214-1.124c-.028-.641-.034-.834-.041-2.455s0-1.813.028-2.455A3.367,3.367,0,0,1,7.631,11.5a2.028,2.028,0,0,1,1.151-1.151,3.55,3.55,0,0,1,1.124-.214c.641-.028.834-.034,2.448-.041s1.813,0,2.455.028a3.367,3.367,0,0,1,1.124.207,1.825,1.825,0,0,1,.7.455,1.879,1.879,0,0,1,.455.7A3.55,3.55,0,0,1,17.3,12.6c.028.641.034.834.041,2.448s0,1.813-.028,2.455a3.462,3.462,0,0,1-.207,1.131,2.028,2.028,0,0,1-1.151,1.151A3.55,3.55,0,0,1,14.829,20c-.641.028-.834.034-2.455.041s-1.806,0-2.448-.028m4.95-8.184A.727.727,0,1,0,15.6,11.1a.73.73,0,0,0-.724.731M9.258,15.074a3.116,3.116,0,1,0,3.109-3.123,3.113,3.113,0,0,0-3.109,3.123m1.089,0a2.024,2.024,0,1,1,2.027,2.02,2.029,2.029,0,0,1-2.027-2.02" transform="translate(-6.3 -9)" fill="#fff"/>
    </g>
  </g>
</svg>
